<svg width="1000" viewBox="0 0 1000 189" fill="none" xmlns="http://www.w3.org/2000/svg">
<g clip-path="url(#clip0_785_258)">
<g clip-path="url(#clip1_785_258)">
<g clip-path="url(#clip2_785_258)">
<g clip-path="url(#clip3_785_258)">
<g clip-path="url(#clip4_785_258)">
<g clip-path="url(#clip5_785_258)">
<path d="M355.057 133.018V58.7839H380.952C391.033 58.7839 398.521 60.2815 403.416 63.2766C408.311 66.2718 410.758 70.9309 410.758 77.254C410.758 81.4278 409.69 84.9845 407.555 87.9242C405.419 90.8639 402.612 92.7566 399.131 93.6025V94.1225C403.735 95.3427 407.07 97.3742 409.136 100.217C411.202 103.059 412.235 106.748 412.235 111.282C412.235 118.021 409.704 123.325 404.643 127.194C399.582 131.077 392.683 133.018 383.947 133.018H355.057ZM375.107 73.9677V87.2586H381.16C384.031 87.2586 386.256 86.6693 387.837 85.4906C389.404 84.2981 390.187 82.5371 390.187 80.2075C390.187 76.0476 387.04 73.9677 380.744 73.9677H375.107ZM381.763 101.943H375.107V117.522H382.159C388.426 117.522 391.56 114.887 391.56 109.618C391.56 107.136 390.721 105.236 389.043 103.919C387.365 102.602 384.939 101.943 381.763 101.943ZM479.917 133.018H464.941L462.445 125.863H461.28C459.616 128.497 457.308 130.522 454.354 131.936C451.387 133.337 447.906 134.037 443.913 134.037C437.576 134.037 432.653 132.2 429.145 128.525C425.623 124.85 423.862 119.664 423.862 112.967V75.486H443.705V106.914C443.705 110.672 444.239 113.515 445.306 115.442C446.374 117.37 448.128 118.333 450.569 118.333C453.98 118.333 456.413 116.988 457.869 114.298C459.325 111.608 460.053 107.067 460.053 100.674V75.486H479.917V133.018ZM519.831 134.037C510.416 134.037 503.282 131.499 498.429 126.424C493.561 121.335 491.128 114.035 491.128 104.522C491.128 94.9822 493.756 87.5845 499.011 82.3291C504.252 77.0876 511.713 74.4668 521.391 74.4668C528.061 74.4668 534.343 75.9228 540.236 78.8348L534.391 93.5193C531.992 92.4655 529.774 91.6265 527.735 91.0025C525.711 90.3786 523.596 90.0666 521.391 90.0666C518.174 90.0666 515.685 91.3145 513.924 93.8105C512.163 96.3203 511.283 99.8563 511.283 104.418C511.283 113.639 514.687 118.25 521.495 118.25C527.319 118.25 532.907 116.551 538.26 113.154V128.962C533.143 132.345 527 134.037 519.831 134.037ZM605.838 133.018H585.891V101.631C585.891 93.9214 583.603 90.0666 579.027 90.0666C575.782 90.0666 573.39 91.4255 571.851 94.1433C570.298 96.875 569.522 101.402 569.522 107.725V133.018H549.679V54H569.522V65.2318C569.522 70.3069 569.251 76.0961 568.71 82.5995H569.626C571.525 79.6182 573.779 77.5175 576.386 76.2972C578.992 75.077 582.022 74.4668 585.475 74.4668C591.909 74.4668 596.915 76.318 600.492 80.0203C604.056 83.7365 605.838 88.9295 605.838 95.5993V133.018ZM670.629 133.018H656.859L653.053 125.405H652.658C649.982 128.719 647.257 130.986 644.484 132.207C641.71 133.427 638.119 134.037 633.709 134.037C628.301 134.037 624.037 132.408 620.918 129.149C617.798 125.904 616.238 121.335 616.238 115.442C616.238 109.313 618.373 104.751 622.644 101.756C626.915 98.7608 633.092 97.076 641.176 96.7017L650.765 96.4105V95.5993C650.765 90.857 648.435 88.4858 643.776 88.4858C639.575 88.4858 634.243 89.9071 627.781 92.7497L622.041 79.646C628.738 76.1932 637.197 74.4668 647.416 74.4668C654.807 74.4668 660.52 76.2972 664.555 79.9579C668.604 83.6048 670.629 88.7146 670.629 95.2873V133.018ZM642.133 120.018C644.546 120.018 646.605 119.255 648.311 117.73C650.016 116.205 650.869 114.222 650.869 111.781V107.33L646.314 107.517C639.769 107.767 636.496 110.173 636.496 114.735C636.496 118.257 638.375 120.018 642.133 120.018ZM702.972 100.674H703.388C705.787 96.8472 707.832 93.866 709.524 91.7305L722.42 75.486H744.571L724.604 99.9672L745.84 133.018H723.127L710.543 112.405L704.095 117.335V133.018H684.128V54H704.095V85.0747C704.095 90.3994 703.721 95.5993 702.972 100.674ZM780.451 134.037C770.869 134.037 763.43 131.486 758.133 126.383C752.836 121.294 750.187 114.042 750.187 104.626C750.187 94.9198 752.642 87.4666 757.55 82.2667C762.459 77.0668 769.468 74.4668 778.579 74.4668C787.245 74.4668 793.943 76.7271 798.671 81.2475C803.386 85.768 805.743 92.2783 805.743 100.778V109.618H770.259C770.384 112.821 771.555 115.338 773.774 117.168C775.993 118.999 779.016 119.914 782.843 119.914C786.337 119.914 789.547 119.588 792.473 118.936C795.399 118.271 798.574 117.141 801.999 115.546V129.815C798.879 131.409 795.662 132.512 792.348 133.122C789.02 133.732 785.054 134.037 780.451 134.037ZM779.286 87.9658C776.956 87.9658 775.001 88.7077 773.42 90.1914C771.854 91.6612 770.931 93.97 770.654 97.1176H787.71C787.654 94.3444 786.871 92.1257 785.359 90.4618C783.848 88.7978 781.824 87.9658 779.286 87.9658ZM866.686 110.471C866.686 115.075 865.514 119.165 863.171 122.743C860.841 126.306 857.472 129.08 853.062 131.063C848.667 133.046 843.508 134.037 837.587 134.037C832.637 134.037 828.491 133.69 825.149 132.997C821.793 132.304 818.306 131.09 814.687 129.357V111.49C818.5 113.445 822.473 114.978 826.605 116.087C830.737 117.182 834.53 117.73 837.982 117.73C840.964 117.73 843.148 117.217 844.534 116.191C845.921 115.151 846.614 113.82 846.614 112.197C846.614 111.185 846.337 110.298 845.782 109.535C845.228 108.772 844.333 108.003 843.099 107.226C841.851 106.45 838.558 104.855 833.219 102.442C828.38 100.251 824.747 98.123 822.32 96.0569C819.894 93.9908 818.098 91.6196 816.933 88.9434C815.768 86.2672 815.186 83.0987 815.186 79.438C815.186 72.6018 817.675 67.2702 822.653 63.443C827.631 59.6159 834.467 57.7023 843.162 57.7023C850.844 57.7023 858.685 59.4842 866.686 63.0478L860.529 78.5228C853.596 75.3474 847.606 73.7597 842.558 73.7597C839.952 73.7597 838.052 74.2172 836.859 75.1324C835.681 76.0476 835.091 77.1777 835.091 78.5228C835.091 79.9787 835.847 81.2822 837.359 82.4331C838.856 83.584 842.94 85.6848 849.61 88.7354C856.016 91.6196 860.46 94.7118 862.942 98.012C865.438 101.312 866.686 105.465 866.686 110.471ZM928.274 133.018H914.504L910.698 125.405H910.303C907.627 128.719 904.895 130.986 902.108 132.207C899.334 133.427 895.75 134.037 891.354 134.037C885.933 134.037 881.669 132.408 878.563 129.149C875.443 125.904 873.883 121.335 873.883 115.442C873.883 109.313 876.018 104.751 880.289 101.756C884.546 98.7608 890.723 97.076 898.821 96.7017L908.41 96.4105V95.5993C908.41 90.857 906.074 88.4858 901.401 88.4858C897.213 88.4858 891.881 89.9071 885.406 92.7497L879.665 79.646C886.376 76.1932 894.842 74.4668 905.061 74.4668C912.438 74.4668 918.151 76.2972 922.2 79.9579C926.249 83.6048 928.274 88.7146 928.274 95.2873V133.018ZM899.778 120.018C902.177 120.018 904.236 119.255 905.956 117.73C907.661 116.205 908.514 114.222 908.514 111.781V107.33L903.938 107.517C897.407 107.767 894.142 110.173 894.142 114.735C894.142 118.257 896.02 120.018 899.778 120.018ZM997.932 133.018H978.089V101.631C978.089 97.804 977.534 94.9198 976.425 92.9785C975.329 91.0372 973.561 90.0666 971.121 90.0666C967.765 90.0666 965.346 91.3977 963.862 94.0601C962.378 96.7363 961.636 101.326 961.636 107.829V133.018H941.773V75.486H956.748L959.244 82.5995H960.409C962.101 79.8817 964.444 77.8502 967.439 76.5052C970.435 75.1463 973.88 74.4668 977.777 74.4668C984.142 74.4668 989.092 76.3111 992.628 79.9995C996.164 83.688 997.932 88.8879 997.932 95.5993V133.018Z" fill="#6936F5"/>
</g>
</g>
<g clip-path="url(#clip6_785_258)">
<g clip-path="url(#clip7_785_258)">
<path d="M367.08 175.876C365.099 176.611 363.25 176.978 361.536 176.978C359.599 176.978 358.029 176.466 356.827 175.442C355.625 174.418 355.023 172.781 355.023 170.532V159.812C355.023 158.119 355.264 156.839 355.745 155.971C356.221 155.103 356.949 154.368 357.929 153.767C358.909 153.21 360.111 152.932 361.536 152.932C363.273 152.932 364.842 153.299 366.245 154.034L365.711 155.303C364.442 154.835 363.239 154.602 362.104 154.602C360.746 154.602 359.537 154.936 358.477 155.603C357.421 156.271 356.894 157.574 356.894 159.511V170.466C356.894 172.002 357.295 173.186 358.096 174.019C358.898 174.856 360.1 175.275 361.703 175.275C363.106 175.275 364.765 174.952 366.679 174.306L367.08 175.876ZM381.475 176.644C379.07 176.889 377.333 177.012 376.265 177.012C373.927 177.012 372.068 176.577 370.687 175.709C369.307 174.841 368.616 173.271 368.616 171V168.228C368.616 166.024 369.385 164.543 370.921 163.786C371.656 163.407 372.591 163.218 373.726 163.218C374.773 163.218 375.83 163.39 376.899 163.733C377.968 164.08 378.87 164.532 379.604 165.089C379.604 163.864 379.248 162.889 378.536 162.163C377.823 161.441 376.454 161.081 374.428 161.081L374.528 159.645C376.665 159.645 378.24 159.983 379.25 160.66C380.266 161.341 380.889 162.149 381.121 163.085C381.357 164.02 381.475 165.222 381.475 166.692V176.644ZM379.604 166.525C378.692 166.102 377.716 165.734 376.679 165.423C375.646 165.111 374.695 164.955 373.827 164.955C371.578 164.955 370.453 166.079 370.453 168.328V171.234C370.453 172.681 370.954 173.732 371.956 174.387C372.958 175.046 374.383 175.375 376.231 175.375C377.189 175.375 378.313 175.286 379.604 175.108V166.525ZM395.301 176.644V165.189C395.301 163.831 394.905 162.844 394.112 162.23C393.324 161.62 392.307 161.315 391.06 161.315C390.303 161.315 389.535 161.419 388.755 161.628C387.976 161.842 387.286 162.116 386.685 162.45V176.644H384.814V159.912H386.685L386.551 161.047C387.086 160.58 387.765 160.228 388.588 159.992C389.412 159.76 390.269 159.645 391.16 159.645C392.385 159.645 393.431 159.845 394.3 160.246C395.19 160.647 395.885 161.248 396.384 162.049C396.887 162.851 397.138 163.864 397.138 165.089V176.644H395.301ZM401.974 165.089C401.974 162.751 402.921 161.148 404.813 160.279C405.726 159.856 406.817 159.645 408.086 159.645C408.91 159.645 409.707 159.745 410.478 159.945C411.243 160.146 411.894 160.435 412.428 160.814V153.266H414.298V176.644L412.461 176.811C411.014 176.967 409.879 177.045 409.055 177.045C408.231 177.045 407.458 176.967 406.737 176.811C406.011 176.655 405.292 176.399 404.579 176.043C403.778 175.642 403.143 175.052 402.676 174.273C402.208 173.494 401.974 172.536 401.974 171.401V165.089ZM412.428 162.45C411.827 162.116 411.137 161.842 410.357 161.628C409.578 161.419 408.81 161.315 408.053 161.315C406.806 161.315 405.788 161.62 405 162.23C404.208 162.844 403.811 163.831 403.811 165.189V171.434C403.811 174.039 405.604 175.342 409.188 175.342C410.034 175.342 411.114 175.242 412.428 175.041V162.45ZM419.141 155.169C418.852 155.169 418.591 155.051 418.359 154.815C418.123 154.584 418.005 154.323 418.005 154.034C418.005 153.744 418.117 153.488 418.339 153.266C418.562 153.043 418.829 152.932 419.141 152.932C419.453 152.932 419.715 153.039 419.929 153.252C420.138 153.462 420.243 153.722 420.243 154.034C420.243 154.345 420.132 154.613 419.909 154.835C419.686 155.058 419.43 155.169 419.141 155.169ZM418.172 176.644V159.912H420.043V176.644H418.172ZM425.52 165.089C425.52 162.751 426.466 161.148 428.359 160.279C429.272 159.856 430.363 159.645 431.632 159.645C432.456 159.645 433.251 159.745 434.016 159.945C434.787 160.146 435.439 160.435 435.974 160.814V153.266H437.844V176.644L436.007 176.811C434.56 176.967 433.424 177.045 432.6 177.045C431.777 177.045 431.002 176.967 430.276 176.811C429.554 176.655 428.838 176.399 428.125 176.043C427.323 175.642 426.689 175.052 426.221 174.273C425.754 173.494 425.52 172.536 425.52 171.401V165.089ZM435.974 162.45C435.372 162.116 434.682 161.842 433.903 161.628C433.124 161.419 432.355 161.315 431.598 161.315C430.352 161.315 429.332 161.62 428.539 162.23C427.751 162.844 427.357 163.831 427.357 165.189V171.434C427.357 174.039 429.149 175.342 432.734 175.342C433.58 175.342 434.66 175.242 435.974 175.041V162.45ZM441.551 176.644V153.266H443.415V176.644H441.551ZM453.835 182.222C455.327 181.665 456.073 180.507 456.073 178.748V175.008C455.649 175.72 455.015 176.237 454.169 176.557C453.323 176.882 452.41 177.045 451.43 177.045C449.471 177.045 447.963 176.515 446.908 175.455C445.848 174.4 445.318 172.837 445.318 170.766V159.912H447.122V171.1C447.122 172.525 447.511 173.587 448.291 174.286C449.07 174.99 450.117 175.342 451.43 175.342C452.811 175.342 453.924 174.997 454.77 174.306C455.616 173.616 456.039 172.547 456.039 171.1V164.521C456.039 163.452 456.073 162.655 456.139 162.129C456.206 161.608 456.413 161.119 456.761 160.66C457.103 160.206 457.676 159.856 458.477 159.611L458.978 160.88C458.221 161.214 457.843 161.994 457.843 163.218V178.682C457.843 180.04 457.575 181.108 457.041 181.888C456.507 182.667 455.605 183.257 454.336 183.658L453.835 182.222ZM481.756 175.475C480.954 175.987 480.041 176.377 479.017 176.644C477.993 176.911 476.969 177.045 475.944 177.045C474.297 177.045 472.988 176.638 472.017 175.823C471.05 175.012 470.567 173.794 470.567 172.169V165.322C470.567 163.519 471.128 162.116 472.251 161.114C473.377 160.112 474.864 159.611 476.713 159.611C478.561 159.611 480.001 160.106 481.034 161.094C482.072 162.087 482.591 163.463 482.591 165.222V169.564L472.438 170.132V172.169C472.438 173.238 472.783 174.039 473.473 174.574C474.163 175.108 475.065 175.375 476.178 175.375C477.737 175.375 479.351 174.93 481.021 174.039L481.756 175.475ZM480.72 164.988C480.72 163.608 480.286 162.633 479.418 162.063C478.549 161.497 477.637 161.214 476.679 161.214C475.455 161.214 474.441 161.548 473.64 162.216C472.838 162.884 472.438 163.931 472.438 165.356V168.295L480.72 167.894V164.988ZM495.916 176.644L491.808 170.065L487.7 176.644H485.496L490.706 168.328L485.496 159.912H487.6L491.808 166.591L496.017 159.912H498.121L492.877 168.328L498.121 176.644H495.916ZM501.821 183.658V159.912H503.691L503.524 161.615C504.126 160.969 504.834 160.48 505.649 160.146C506.459 159.812 507.265 159.645 508.067 159.645C510.137 159.645 511.714 160.246 512.796 161.448C513.873 162.65 514.412 164.209 514.412 166.124V170.766C514.412 172.792 513.844 174.344 512.709 175.422C511.573 176.504 510.07 177.045 508.2 177.045C507.243 177.045 506.397 176.911 505.662 176.644C504.927 176.377 504.27 175.909 503.691 175.242V182.923L501.821 183.658ZM512.542 165.99C512.542 164.365 512.114 163.185 511.259 162.45C510.4 161.715 509.38 161.348 508.2 161.348C506.998 161.348 505.963 161.709 505.094 162.43C504.226 163.156 503.758 164.287 503.691 165.823V171.1C503.691 172.547 504.103 173.616 504.927 174.306C505.751 174.997 506.842 175.342 508.2 175.342C509.425 175.342 510.456 174.979 511.293 174.253C512.126 173.532 512.542 172.481 512.542 171.1V165.99ZM517.552 176.644V159.912H519.422L519.322 161.081C520.368 160.101 521.738 159.611 523.43 159.611C524.031 159.611 524.855 159.711 525.901 159.912L525.4 161.615C524.688 161.392 523.942 161.281 523.162 161.281C522.138 161.281 521.259 161.47 520.524 161.849C519.789 162.227 519.422 162.795 519.422 163.552V176.644H517.552ZM537.457 175.475C536.655 175.987 535.742 176.377 534.718 176.644C533.694 176.911 532.67 177.045 531.646 177.045C529.998 177.045 528.689 176.638 527.718 175.823C526.752 175.012 526.269 173.794 526.269 172.169V165.322C526.269 163.519 526.83 162.116 527.952 161.114C529.078 160.112 530.566 159.611 532.414 159.611C534.262 159.611 535.702 160.106 536.735 161.094C537.773 162.087 538.292 163.463 538.292 165.222V169.564L528.139 170.132V172.169C528.139 173.238 528.484 174.039 529.174 174.574C529.864 175.108 530.766 175.375 531.879 175.375C533.438 175.375 535.052 174.93 536.722 174.039L537.457 175.475ZM536.422 164.988C536.422 163.608 535.987 162.633 535.119 162.063C534.251 161.497 533.338 161.214 532.38 161.214C531.156 161.214 530.143 161.548 529.341 162.216C528.54 162.884 528.139 163.931 528.139 165.356V168.295L536.422 167.894V164.988ZM542.56 172.403C542.698 173.405 543.199 174.155 544.063 174.654C544.931 175.157 545.902 175.409 546.975 175.409C547.977 175.409 548.888 175.179 549.707 174.721C550.536 174.266 550.95 173.527 550.95 172.503C550.95 171.835 550.754 171.283 550.362 170.846C549.974 170.414 549.489 170.065 548.906 169.798C548.327 169.53 547.548 169.241 546.568 168.929C545.481 168.573 544.591 168.239 543.896 167.927C543.206 167.616 542.607 167.175 542.099 166.605C541.587 166.039 541.284 165.322 541.191 164.454L541.164 164.053C541.164 163.318 541.369 162.599 541.779 161.896C542.188 161.197 542.823 160.624 543.682 160.179C544.542 159.734 545.615 159.511 546.902 159.511C547.619 159.511 548.249 159.582 548.792 159.725C549.34 159.872 549.767 160.023 550.075 160.179C550.386 160.335 550.578 160.435 550.649 160.48L550.015 162.016C549.943 161.971 549.781 161.882 549.527 161.749C549.273 161.615 548.912 161.482 548.445 161.348C547.973 161.214 547.458 161.148 546.902 161.148C545.838 161.148 544.927 161.397 544.17 161.896C543.408 162.399 543.028 163.096 543.028 163.986C543.028 164.832 543.373 165.478 544.063 165.923C544.758 166.369 545.815 166.814 547.236 167.259C548.438 167.66 549.409 168.039 550.148 168.395C550.878 168.751 551.506 169.257 552.032 169.911C552.557 170.57 552.82 171.423 552.82 172.469C552.82 173.805 552.323 174.919 551.33 175.809C550.342 176.7 548.89 177.145 546.975 177.145C545.702 177.145 544.604 176.927 543.682 176.491C542.76 176.059 542.059 175.486 541.578 174.774C541.097 174.061 540.837 173.271 540.797 172.403H542.56ZM556.955 172.403C557.088 173.405 557.589 174.155 558.458 174.654C559.326 175.157 560.294 175.409 561.363 175.409C562.365 175.409 563.278 175.179 564.102 174.721C564.926 174.266 565.338 173.527 565.338 172.503C565.338 171.835 565.144 171.283 564.756 170.846C564.365 170.414 563.879 170.065 563.3 169.798C562.721 169.53 561.942 169.241 560.962 168.929C559.871 168.573 558.981 168.239 558.291 167.927C557.6 167.616 556.999 167.175 556.487 166.605C555.975 166.039 555.674 165.322 555.585 164.454L555.552 164.053C555.552 163.318 555.759 162.599 556.173 161.896C556.583 161.197 557.217 160.624 558.077 160.179C558.932 159.734 560.005 159.511 561.296 159.511C562.009 159.511 562.639 159.582 563.187 159.725C563.73 159.872 564.157 160.023 564.469 160.179C564.781 160.335 564.97 160.435 565.037 160.48L564.402 162.016C564.336 161.971 564.175 161.882 563.921 161.749C563.663 161.615 563.3 161.482 562.833 161.348C562.365 161.214 561.853 161.148 561.296 161.148C560.228 161.148 559.315 161.397 558.558 161.896C557.801 162.399 557.422 163.096 557.422 163.986C557.422 164.832 557.767 165.478 558.458 165.923C559.148 166.369 560.205 166.814 561.63 167.259C562.833 167.66 563.801 168.039 564.536 168.395C565.271 168.751 565.901 169.257 566.426 169.911C566.947 170.57 567.208 171.423 567.208 172.469C567.208 173.805 566.714 174.919 565.725 175.809C564.732 176.7 563.278 177.145 561.363 177.145C560.094 177.145 558.999 176.927 558.077 176.491C557.151 176.059 556.449 175.486 555.973 174.774C555.492 174.061 555.229 173.271 555.185 172.403H556.955ZM581.402 155.169C581.113 155.169 580.85 155.051 580.614 154.815C580.382 154.584 580.266 154.323 580.266 154.034C580.266 153.744 580.378 153.488 580.6 153.266C580.823 153.043 581.09 152.932 581.402 152.932C581.714 152.932 581.974 153.039 582.184 153.252C582.397 153.462 582.504 153.722 582.504 154.034C582.504 154.345 582.393 154.613 582.17 154.835C581.947 155.058 581.691 155.169 581.402 155.169ZM580.433 176.644V159.912H582.304V176.644H580.433ZM606.784 176.644V165.189C606.784 163.853 606.433 162.873 605.729 162.25C605.03 161.626 604.124 161.315 603.011 161.315C602.142 161.315 601.174 161.504 600.105 161.882L598.869 162.483C599.248 163.24 599.437 164.109 599.437 165.089V176.644H597.6V165.189C597.6 163.831 597.248 162.844 596.545 162.23C595.846 161.62 594.926 161.315 593.786 161.315C593.1 161.315 592.39 161.419 591.655 161.628C590.92 161.842 590.252 162.116 589.651 162.45V176.644H587.774V159.912H589.651L589.484 160.981C590.954 160.112 592.457 159.678 593.993 159.678C594.795 159.678 595.545 159.812 596.244 160.079C596.943 160.346 597.54 160.736 598.034 161.248C598.346 161.07 598.813 160.825 599.437 160.513C600.751 159.912 602.02 159.611 603.244 159.611C604.825 159.611 606.117 160.094 607.118 161.061C608.12 162.031 608.621 163.374 608.621 165.089V176.644H606.784ZM612.322 183.658V159.912H614.192L614.025 161.615C614.626 160.969 615.334 160.48 616.149 160.146C616.96 159.812 617.766 159.645 618.567 159.645C620.638 159.645 622.214 160.246 623.296 161.448C624.374 162.65 624.913 164.209 624.913 166.124V170.766C624.913 172.792 624.345 174.344 623.21 175.422C622.074 176.504 620.571 177.045 618.701 177.045C617.743 177.045 616.897 176.911 616.163 176.644C615.428 176.377 614.771 175.909 614.192 175.242V182.923L612.322 183.658ZM623.043 165.99C623.043 164.365 622.615 163.185 621.76 162.45C620.901 161.715 619.881 161.348 618.701 161.348C617.499 161.348 616.463 161.709 615.595 162.43C614.727 163.156 614.259 164.287 614.192 165.823V171.1C614.192 172.547 614.604 173.616 615.428 174.306C616.252 174.997 617.343 175.342 618.701 175.342C619.925 175.342 620.956 174.979 621.794 174.253C622.626 173.532 623.043 172.481 623.043 171.1V165.99ZM628.052 176.644V159.912H629.923L629.822 161.081C630.869 160.101 632.238 159.611 633.93 159.611C634.532 159.611 635.355 159.711 636.402 159.912L635.901 161.615C635.188 161.392 634.443 161.281 633.663 161.281C632.639 161.281 631.76 161.47 631.025 161.849C630.29 162.227 629.923 162.795 629.923 163.552V176.644H628.052ZM647.958 175.475C647.156 175.987 646.243 176.377 645.219 176.644C644.195 176.911 643.171 177.045 642.146 177.045C640.499 177.045 639.189 176.638 638.219 175.823C637.252 175.012 636.769 173.794 636.769 172.169V165.322C636.769 163.519 637.33 162.116 638.453 161.114C639.579 160.112 641.066 159.611 642.914 159.611C644.762 159.611 646.203 160.106 647.236 161.094C648.274 162.087 648.793 163.463 648.793 165.222V169.564L638.64 170.132V172.169C638.64 173.238 638.985 174.039 639.675 174.574C640.365 175.108 641.267 175.375 642.38 175.375C643.939 175.375 645.553 174.93 647.223 174.039L647.958 175.475ZM646.922 164.988C646.922 163.608 646.488 162.633 645.62 162.063C644.751 161.497 643.838 161.214 642.881 161.214C641.656 161.214 640.643 161.548 639.842 162.216C639.04 162.884 638.64 163.931 638.64 165.356V168.295L646.922 167.894V164.988ZM653.061 172.403C653.194 173.405 653.695 174.155 654.564 174.654C655.432 175.157 656.401 175.409 657.469 175.409C658.471 175.409 659.384 175.179 660.208 174.721C661.032 174.266 661.444 173.527 661.444 172.503C661.444 171.835 661.25 171.283 660.863 170.846C660.471 170.414 659.985 170.065 659.406 169.798C658.828 169.53 658.048 169.241 657.069 168.929C655.978 168.573 655.087 168.239 654.397 167.927C653.706 167.616 653.105 167.175 652.593 166.605C652.081 166.039 651.781 165.322 651.691 164.454L651.658 164.053C651.658 163.318 651.865 162.599 652.279 161.896C652.689 161.197 653.324 160.624 654.183 160.179C655.038 159.734 656.111 159.511 657.403 159.511C658.115 159.511 658.745 159.582 659.293 159.725C659.836 159.872 660.264 160.023 660.575 160.179C660.887 160.335 661.076 160.435 661.143 160.48L660.509 162.016C660.442 161.971 660.281 161.882 660.028 161.749C659.769 161.615 659.406 161.482 658.939 161.348C658.471 161.214 657.959 161.148 657.403 161.148C656.334 161.148 655.421 161.397 654.664 161.896C653.907 162.399 653.528 163.096 653.528 163.986C653.528 164.832 653.873 165.478 654.564 165.923C655.254 166.369 656.312 166.814 657.737 167.259C658.939 167.66 659.907 168.039 660.642 168.395C661.377 168.751 662.007 169.257 662.532 169.911C663.054 170.57 663.314 171.423 663.314 172.469C663.314 173.805 662.82 174.919 661.831 175.809C660.838 176.7 659.384 177.145 657.469 177.145C656.2 177.145 655.105 176.927 654.183 176.491C653.257 176.059 652.555 175.486 652.079 174.774C651.598 174.061 651.335 173.271 651.291 172.403H653.061ZM667.455 172.403C667.589 173.405 668.09 174.155 668.958 174.654C669.827 175.157 670.795 175.409 671.864 175.409C672.866 175.409 673.779 175.179 674.603 174.721C675.426 174.266 675.838 173.527 675.838 172.503C675.838 171.835 675.645 171.283 675.257 170.846C674.865 170.414 674.38 170.065 673.801 169.798C673.222 169.53 672.443 169.241 671.463 168.929C670.372 168.573 669.482 168.239 668.791 167.927C668.101 167.616 667.5 167.175 666.988 166.605C666.476 166.039 666.175 165.322 666.086 164.454L666.053 164.053C666.053 163.318 666.26 162.599 666.674 161.896C667.084 161.197 667.718 160.624 668.578 160.179C669.433 159.734 670.506 159.511 671.797 159.511C672.51 159.511 673.14 159.582 673.687 159.725C674.231 159.872 674.658 160.023 674.97 160.179C675.282 160.335 675.471 160.435 675.538 160.48L674.903 162.016C674.836 161.971 674.676 161.882 674.422 161.749C674.164 161.615 673.801 161.482 673.333 161.348C672.866 161.214 672.354 161.148 671.797 161.148C670.728 161.148 669.815 161.397 669.058 161.896C668.301 162.399 667.923 163.096 667.923 163.986C667.923 164.832 668.268 165.478 668.958 165.923C669.649 166.369 670.706 166.814 672.131 167.259C673.333 167.66 674.302 168.039 675.037 168.395C675.771 168.751 676.402 169.257 676.927 169.911C677.448 170.57 677.709 171.423 677.709 172.469C677.709 173.805 677.214 174.919 676.226 175.809C675.233 176.7 673.779 177.145 671.864 177.145C670.595 177.145 669.499 176.927 668.578 176.491C667.651 176.059 666.95 175.486 666.473 174.774C665.993 174.061 665.73 173.271 665.685 172.403H667.455ZM682.618 155.169C682.329 155.169 682.066 155.051 681.83 154.815C681.598 154.584 681.483 154.323 681.483 154.034C681.483 153.744 681.594 153.488 681.817 153.266C682.039 153.043 682.306 152.932 682.618 152.932C682.93 152.932 683.19 153.039 683.4 153.252C683.613 153.462 683.72 153.722 683.72 154.034C683.72 154.345 683.609 154.613 683.386 154.835C683.164 155.058 682.908 155.169 682.618 155.169ZM681.65 176.644V159.912H683.52V176.644H681.65ZM701.455 170.499C701.455 172.369 700.942 173.917 699.918 175.141C698.894 176.366 697.347 176.978 695.276 176.978C693.205 176.978 691.64 176.361 690.58 175.128C689.525 173.89 688.997 172.347 688.997 170.499V166.09C688.997 163.975 689.536 162.354 690.614 161.228C691.696 160.106 693.25 159.544 695.276 159.544C697.213 159.544 698.727 160.128 699.818 161.295C700.909 162.466 701.455 164.064 701.455 166.09V170.499ZM699.584 166.09C699.584 164.421 699.199 163.196 698.429 162.417C697.663 161.637 696.612 161.248 695.276 161.248C693.895 161.248 692.816 161.637 692.036 162.417C691.257 163.196 690.867 164.421 690.867 166.09V170.833C690.867 172.169 691.261 173.249 692.05 174.073C692.842 174.896 693.918 175.308 695.276 175.308C696.656 175.308 697.718 174.901 698.462 174.086C699.21 173.275 699.584 172.191 699.584 170.833V166.09ZM715.174 176.644V165.189C715.174 163.831 714.78 162.844 713.992 162.23C713.2 161.62 712.18 161.315 710.933 161.315C710.176 161.315 709.408 161.419 708.628 161.628C707.849 161.842 707.159 162.116 706.558 162.45V176.644H704.688V159.912H706.558L706.424 161.047C706.959 160.58 707.638 160.228 708.461 159.992C709.285 159.76 710.143 159.645 711.033 159.645C712.258 159.645 713.304 159.845 714.173 160.246C715.063 160.647 715.76 161.248 716.263 162.049C716.762 162.851 717.011 163.864 717.011 165.089V176.644H715.174ZM722.221 172.403C722.355 173.405 722.856 174.155 723.724 174.654C724.593 175.157 725.561 175.409 726.63 175.409C727.632 175.409 728.545 175.179 729.369 174.721C730.192 174.266 730.604 173.527 730.604 172.503C730.604 171.835 730.411 171.283 730.023 170.846C729.631 170.414 729.146 170.065 728.567 169.798C727.988 169.53 727.209 169.241 726.229 168.929C725.138 168.573 724.248 168.239 723.557 167.927C722.867 167.616 722.266 167.175 721.754 166.605C721.242 166.039 720.941 165.322 720.852 164.454L720.819 164.053C720.819 163.318 721.026 162.599 721.44 161.896C721.85 161.197 722.484 160.624 723.344 160.179C724.199 159.734 725.272 159.511 726.563 159.511C727.276 159.511 727.906 159.582 728.454 159.725C728.997 159.872 729.424 160.023 729.736 160.179C730.048 160.335 730.237 160.435 730.304 160.48L729.669 162.016C729.602 161.971 729.442 161.882 729.188 161.749C728.93 161.615 728.567 161.482 728.1 161.348C727.632 161.214 727.12 161.148 726.563 161.148C725.494 161.148 724.582 161.397 723.825 161.896C723.068 162.399 722.689 163.096 722.689 163.986C722.689 164.832 723.034 165.478 723.724 165.923C724.415 166.369 725.472 166.814 726.897 167.259C728.1 167.66 729.068 168.039 729.803 168.395C730.538 168.751 731.168 169.257 731.693 169.911C732.214 170.57 732.475 171.423 732.475 172.469C732.475 173.805 731.98 174.919 730.992 175.809C729.999 176.7 728.545 177.145 726.63 177.145C725.361 177.145 724.265 176.927 723.344 176.491C722.417 176.059 721.716 175.486 721.24 174.774C720.759 174.061 720.496 173.271 720.451 172.403H722.221Z" fill="#6936F5"/>
</g>
</g>
</g>
</g>
<g clip-path="url(#clip8_785_258)">
<g clip-path="url(#clip9_785_258)">
<path d="M169.059 133.666C190.32 133.666 207.556 116.431 207.556 95.1695C207.556 73.9084 190.32 56.6729 169.059 56.6729C147.798 56.6729 130.562 73.9084 130.562 95.1695C130.562 116.431 147.798 133.666 169.059 133.666Z" fill="#6936F5"/>
<path d="M328.903 81.2773L252.747 30.3948C228.024 13.7153 198.882 4.80371 169.059 4.80371C139.236 4.80371 110.093 13.7153 85.3703 30.3948L9.04654 80.6078C6.76815 82.1389 4.9013 84.2069 3.61049 86.6295C2.31968 89.0521 1.64453 91.755 1.64453 94.5001C1.64453 97.2451 2.31968 99.948 3.61049 102.371C4.9013 104.793 6.76815 106.861 9.04654 108.392L85.3703 158.605C110.142 175.157 139.266 183.991 169.059 183.991C198.851 183.991 227.975 175.157 252.747 158.605L329.071 108.392C331.349 106.861 333.216 104.793 334.507 102.371C335.797 99.948 336.473 97.2451 336.473 94.5001C336.473 91.755 335.797 89.0521 334.507 86.6295C333.216 84.2069 331.349 82.1389 329.071 80.6078L328.903 81.2773ZM169.059 157.936C156.645 157.936 144.509 154.255 134.188 147.358C123.866 140.461 115.821 130.658 111.07 119.189C106.32 107.72 105.077 95.0999 107.498 82.9245C109.92 70.749 115.898 59.5652 124.676 50.7871C133.454 42.0091 144.638 36.0312 156.813 33.6094C168.989 31.1875 181.609 32.4305 193.078 37.1811C204.547 41.9318 214.35 49.9767 221.247 60.2985C228.144 70.6204 231.825 82.7556 231.825 95.1696C231.825 111.816 225.212 127.781 213.441 139.552C201.67 151.323 185.705 157.936 169.059 157.936Z" fill="#6936F5"/>
</g>
</g>
</g>
</g>
<defs>
<clipPath id="clip0_785_258">
<rect width="996.71" height="179.187" fill="white" transform="translate(1.64453 4.80371)"/>
</clipPath>
<clipPath id="clip1_785_258">
<rect width="996.71" height="179.187" fill="white" transform="translate(1.64453 4.80371)"/>
</clipPath>
<clipPath id="clip2_785_258">
<rect width="642.987" height="129.658" fill="white" transform="translate(355 54)"/>
</clipPath>
<clipPath id="clip3_785_258">
<rect width="642.987" height="129.658" fill="white" transform="translate(355 54)"/>
</clipPath>
<clipPath id="clip4_785_258">
<rect width="642.987" height="80.037" fill="white" transform="translate(355 54)"/>
</clipPath>
<clipPath id="clip5_785_258">
<rect width="642.987" height="80.037" fill="white" transform="translate(355 54)"/>
</clipPath>
<clipPath id="clip6_785_258">
<rect width="377.498" height="30.7262" fill="white" transform="translate(355 152.932)"/>
</clipPath>
<clipPath id="clip7_785_258">
<rect width="377.498" height="30.7262" fill="white" transform="translate(355 152.932)"/>
</clipPath>
<clipPath id="clip8_785_258">
<rect width="334.828" height="179.187" fill="white" transform="translate(1.64453 4.80371)"/>
</clipPath>
<clipPath id="clip9_785_258">
<rect width="334.828" height="179.187" fill="white" transform="translate(1.64453 4.80371)"/>
</clipPath>
</defs>
</svg>
