<svg xmlns="http://www.w3.org/2000/svg" version="1.1" xmlns:xlink="http://www.w3.org/1999/xlink" xmlns:svgjs="http://svgjs.dev/svgjs" width="1000"  viewBox="0 0 1000 1000"><rect width="1000" fill="#ffffff"></rect><g transform="matrix(0.7,0,0,0.7,149.57575757575756,436.5464282354803)"><svg viewBox="0 0 396 75" data-background-color="#ffffff" preserveAspectRatio="xMidYMid meet" height="189" width="1000" xmlns="http://www.w3.org/2000/svg" xmlns:xlink="http://www.w3.org/1999/xlink"><g id="tight-bounds" transform="matrix(1,0,0,1,0.2400000000000091,1.9062082807034813)"><svg viewBox="0 0 395.52 71.10608765737564" height="71.10608765737564" width="395.52"><g><svg viewBox="0 0 613.105073326373 110.22325820976639" height="71.10608765737564" width="395.52"><g transform="matrix(1,0,0,1,217.585073326373,15.233460432753532)"><svg viewBox="0 0 395.52 79.75633734425932" height="79.75633734425932" width="395.52"><g><svg viewBox="0 0 395.52 79.75633734425932" height="79.75633734425932" width="395.52"><g><svg viewBox="0 0 395.52 49.233040044230314" height="49.233040044230314" width="395.52"><g transform="matrix(1,0,0,1,0,0)"><svg width="395.52" viewBox="3.8600001335144043 -37.9900016784668 309.08001708984375 38.480003356933594" height="49.233040044230314" data-palette-color="#6936f5"><path d="M3.86 0L3.86-35.69 16.31-35.69Q23.58-35.69 27.11-33.53 30.64-31.37 30.64-26.81L30.64-26.81Q30.64-23.8 29.1-21.68 27.56-19.56 25.05-18.95L25.05-18.95 25.05-18.7Q28.37-17.82 29.86-15.77 31.35-13.72 31.35-10.45L31.35-10.45Q31.35-5.59 27.7-2.8 24.05 0 17.75 0L17.75 0 3.86 0ZM13.5-28.39L13.5-22 16.41-22Q18.48-22 19.62-22.85 20.75-23.71 20.75-25.39L20.75-25.39Q20.75-28.39 16.21-28.39L16.21-28.39 13.5-28.39ZM16.7-14.94L13.5-14.94 13.5-7.45 16.89-7.45Q21.41-7.45 21.41-11.25L21.41-11.25Q21.41-13.04 20.2-13.99 18.99-14.94 16.7-14.94L16.7-14.94ZM63.89 0L56.69 0 55.49-3.44 54.93-3.44Q53.73-1.54 51.6-0.52 49.46 0.49 46.58 0.49L46.58 0.49Q42.01 0.49 39.48-2.16 36.94-4.81 36.94-9.64L36.94-9.64 36.94-27.66 46.48-27.66 46.48-12.55Q46.48-9.84 47.25-8.45 48.02-7.06 49.78-7.06L49.78-7.06Q52.24-7.06 53.29-9 54.34-10.94 54.34-15.55L54.34-15.55 54.34-27.66 63.89-27.66 63.89 0ZM83.08 0.49L83.08 0.49Q76.29 0.49 72.79-3.17 69.28-6.84 69.28-13.7L69.28-13.7Q69.28-20.58 73.07-24.37 76.85-28.15 83.83-28.15L83.83-28.15Q88.64-28.15 92.89-26.05L92.89-26.05 90.08-18.99Q88.35-19.75 86.88-20.2 85.42-20.65 83.83-20.65L83.83-20.65Q81.51-20.65 80.24-18.85 78.97-17.04 78.97-13.75L78.97-13.75Q78.97-7.1 83.88-7.1L83.88-7.1Q88.08-7.1 91.94-9.55L91.94-9.55 91.94-1.95Q88.25 0.49 83.08 0.49ZM124.43 0L114.84 0 114.84-15.09Q114.84-20.65 111.54-20.65L111.54-20.65Q109.2-20.65 108.09-18.69 106.97-16.72 106.97-12.16L106.97-12.16 106.97 0 97.43 0 97.43-37.99 106.97-37.99 106.97-32.59Q106.97-28.93 106.58-24.24L106.58-24.24 107.02-24.24Q108.39-26.39 110.27-27.27 112.15-28.15 114.64-28.15L114.64-28.15Q119.28-28.15 121.86-25.48 124.43-22.8 124.43-17.99L124.43-17.99 124.43 0ZM155.58 0L148.96 0 147.13-3.66 146.94-3.66Q145.01-1.27 143.01-0.39 141.01 0.49 137.83 0.49L137.83 0.49Q133.93 0.49 131.68-1.86 129.43-4.2 129.43-8.45L129.43-8.45Q129.43-12.87 132.51-15.03 135.59-17.19 141.42-17.46L141.42-17.46 146.03-17.6 146.03-17.99Q146.03-21.41 142.67-21.41L142.67-21.41Q139.64-21.41 134.98-19.36L134.98-19.36 132.22-25.66Q137.05-28.15 144.42-28.15L144.42-28.15Q149.75-28.15 152.66-25.51 155.58-22.88 155.58-18.14L155.58-18.14 155.58 0ZM141.88-6.25L141.88-6.25Q143.62-6.25 144.85-7.35 146.08-8.45 146.08-10.21L146.08-10.21 146.08-12.35 143.89-12.26Q139.17-12.08 139.17-8.79L139.17-8.79Q139.17-6.25 141.88-6.25ZM171.13-15.55L171.33-15.55Q173.06-18.31 174.28-19.85L174.28-19.85 180.48-27.66 191.13-27.66 181.53-15.89 191.74 0 180.82 0 174.77-9.91 171.67-7.54 171.67 0 162.07 0 162.07-37.99 171.67-37.99 171.67-23.05Q171.67-19.21 171.13-15.55L171.13-15.55ZM208.38 0.49L208.38 0.49Q201.47 0.49 197.65-3.19 193.83-6.86 193.83-13.65L193.83-13.65Q193.83-20.65 197.37-24.4 200.91-28.15 207.48-28.15L207.48-28.15Q213.73-28.15 217.14-24.89 220.54-21.63 220.54-15.5L220.54-15.5 220.54-11.25 203.48-11.25Q203.57-8.94 205.17-7.62 206.77-6.3 209.53-6.3L209.53-6.3Q212.05-6.3 214.16-6.77 216.27-7.25 218.74-8.4L218.74-8.4 218.74-1.54Q216.49-0.39 214.1 0.05 211.7 0.49 208.38 0.49ZM207.82-21.66L207.82-21.66Q206.14-21.66 205-20.59 203.87-19.53 203.67-17.26L203.67-17.26 211.87-17.26Q211.83-19.26 210.74-20.46 209.65-21.66 207.82-21.66ZM249.84-10.84L249.84-10.84Q249.84-7.52 248.15-4.94 246.47-2.37 243.29-0.94 240.12 0.49 235.85 0.49L235.85 0.49Q232.28 0.49 229.87-0.01 227.45-0.51 224.84-1.76L224.84-1.76 224.84-10.35Q227.59-8.94 230.57-8.14 233.55-7.35 236.04-7.35L236.04-7.35Q238.19-7.35 239.19-8.09 240.19-8.84 240.19-10.01L240.19-10.01Q240.19-10.74 239.79-11.29 239.39-11.84 238.5-12.4 237.6-12.96 233.75-14.7L233.75-14.7Q230.26-16.28 228.51-17.77 226.76-19.26 225.92-21.19 225.08-23.12 225.08-25.76L225.08-25.76Q225.08-30.69 228.67-33.45 232.26-36.21 238.53-36.21L238.53-36.21Q244.07-36.21 249.84-33.64L249.84-33.64 246.88-26.2Q241.88-28.49 238.24-28.49L238.24-28.49Q236.36-28.49 235.5-27.83 234.65-27.17 234.65-26.2L234.65-26.2Q234.65-25.15 235.74-24.32 236.82-23.49 241.63-21.29L241.63-21.29Q246.25-19.21 248.04-16.83 249.84-14.45 249.84-10.84ZM279.45 0L272.83 0 271-3.66 270.81-3.66Q268.88-1.27 266.87-0.39 264.87 0.49 261.7 0.49L261.7 0.49Q257.79 0.49 255.55-1.86 253.3-4.2 253.3-8.45L253.3-8.45Q253.3-12.87 256.38-15.03 259.45-17.19 265.29-17.46L265.29-17.46 269.9-17.6 269.9-17.99Q269.9-21.41 266.53-21.41L266.53-21.41Q263.51-21.41 258.84-19.36L258.84-19.36 256.08-25.66Q260.92-28.15 268.29-28.15L268.29-28.15Q273.61-28.15 276.53-25.51 279.45-22.88 279.45-18.14L279.45-18.14 279.45 0ZM265.75-6.25L265.75-6.25Q267.48-6.25 268.72-7.35 269.95-8.45 269.95-10.21L269.95-10.21 269.95-12.35 267.75-12.26Q263.04-12.08 263.04-8.79L263.04-8.79Q263.04-6.25 265.75-6.25ZM312.94 0L303.4 0 303.4-15.09Q303.4-17.85 302.6-19.25 301.81-20.65 300.05-20.65L300.05-20.65Q297.63-20.65 296.56-18.73 295.49-16.8 295.49-12.11L295.49-12.11 295.49 0 285.94 0 285.94-27.66 293.14-27.66 294.34-24.24 294.9-24.24Q296.12-26.2 298.28-27.17 300.44-28.15 303.25-28.15L303.25-28.15Q307.84-28.15 310.39-25.49 312.94-22.83 312.94-17.99L312.94-17.99 312.94 0Z" opacity="1" transform="matrix(1,0,0,1,0,0)" fill="#6936f5" class="undefined-text-0" data-fill-palette-color="primary" id="text-0"></path></svg></g></svg></g><g transform="matrix(1,0,0,1,0,60.85577920571203)"><svg viewBox="0 0 232.209792 18.90055813854729" height="18.90055813854729" width="232.209792"><g transform="matrix(1,0,0,1,0,0)"><svg width="232.209792" viewBox="3.299999952316284 -35.5 565.0800170898438 46" height="18.90055813854729" data-palette-color="#6936f5"><path d="M21.35-1.15Q16.9 0.5 13.05 0.5L13.05 0.5Q8.7 0.5 6-1.8 3.3-4.1 3.3-9.15L3.3-9.15 3.3-25.2Q3.3-29 4.38-30.95 5.45-32.9 7.65-34.25L7.65-34.25Q9.85-35.5 13.05-35.5L13.05-35.5Q16.95-35.5 20.1-33.85L20.1-33.85 19.3-31.95Q16.45-33 13.9-33L13.9-33Q10.85-33 8.47-31.5 6.1-30 6.1-25.65L6.1-25.65 6.1-9.25Q6.1-5.8 7.9-3.93 9.7-2.05 13.3-2.05L13.3-2.05Q16.45-2.05 20.75-3.5L20.75-3.5 21.35-1.15ZM42.9 0Q37.5 0.55 35.1 0.55L35.1 0.55Q29.85 0.55 26.75-1.4 23.65-3.35 23.65-8.45L23.65-8.45 23.65-12.6Q23.65-17.55 27.1-19.25L27.1-19.25Q28.75-20.1 31.3-20.1L31.3-20.1Q33.65-20.1 36.05-19.33 38.45-18.55 40.1-17.3L40.1-17.3Q40.1-20.05 38.5-21.68 36.9-23.3 32.35-23.3L32.35-23.3 32.5-25.45Q37.3-25.45 39.57-23.93 41.85-22.4 42.37-20.3 42.9-18.2 42.9-14.9L42.9-14.9 42.9 0ZM40.1-15.15Q38.05-16.1 35.72-16.8 33.4-17.5 31.45-17.5L31.45-17.5Q26.4-17.5 26.4-12.45L26.4-12.45 26.4-8.1Q26.4-4.85 28.65-3.38 30.9-1.9 35.05-1.9L35.05-1.9Q37.2-1.9 40.1-2.3L40.1-2.3 40.1-15.15ZM63.6 0L63.6-17.15Q63.6-20.2 61.82-21.58 60.05-22.95 57.25-22.95L57.25-22.95Q55.55-22.95 53.8-22.48 52.05-22 50.7-21.25L50.7-21.25 50.7 0 47.9 0 47.9-25.05 50.7-25.05 50.5-23.35Q51.7-24.4 53.55-24.93 55.4-25.45 57.4-25.45L57.4-25.45Q60.15-25.45 62.1-24.55L62.1-24.55Q64.1-23.65 65.22-21.85 66.35-20.05 66.35-17.3L66.35-17.3 66.35 0 63.6 0ZM73.59-17.3Q73.59-22.55 77.84-24.5L77.84-24.5Q79.89-25.45 82.74-25.45L82.74-25.45Q84.59-25.45 86.32-25 88.04-24.55 89.24-23.7L89.24-23.7 89.24-35 92.04-35 92.04 0 89.29 0.25Q86.04 0.6 84.19 0.6L84.19 0.6Q82.34 0.6 80.72 0.25 79.09-0.1 77.49-0.9L77.49-0.9Q75.69-1.8 74.64-3.55 73.59-5.3 73.59-7.85L73.59-7.85 73.59-17.3ZM89.24-21.25Q87.89-22 86.14-22.48 84.39-22.95 82.69-22.95L82.69-22.95Q79.89-22.95 78.12-21.58 76.34-20.2 76.34-17.15L76.34-17.15 76.34-7.8Q76.34-1.95 84.39-1.95L84.39-1.95Q86.29-1.95 89.24-2.4L89.24-2.4 89.24-21.25ZM99.29-32.15Q98.64-32.15 98.12-32.68 97.59-33.2 97.59-33.85L97.59-33.85Q97.59-34.5 98.09-35 98.59-35.5 99.29-35.5L99.29-35.5Q99.99-35.5 100.47-35.02 100.94-34.55 100.94-33.85L100.94-33.85Q100.94-33.15 100.44-32.65 99.94-32.15 99.29-32.15L99.29-32.15ZM97.84 0L97.84-25.05 100.64-25.05 100.64 0 97.84 0ZM108.84-17.3Q108.84-22.55 113.09-24.5L113.09-24.5Q115.14-25.45 117.99-25.45L117.99-25.45Q119.84-25.45 121.56-25 123.29-24.55 124.49-23.7L124.49-23.7 124.49-35 127.29-35 127.29 0 124.54 0.25Q121.29 0.6 119.44 0.6L119.44 0.6Q117.59 0.6 115.96 0.25 114.34-0.1 112.74-0.9L112.74-0.9Q110.94-1.8 109.89-3.55 108.84-5.3 108.84-7.85L108.84-7.85 108.84-17.3ZM124.49-21.25Q123.14-22 121.39-22.48 119.64-22.95 117.94-22.95L117.94-22.95Q115.14-22.95 113.36-21.58 111.59-20.2 111.59-17.15L111.59-17.15 111.59-7.8Q111.59-1.95 119.64-1.95L119.64-1.95Q121.54-1.95 124.49-2.4L124.49-2.4 124.49-21.25ZM132.84 0L132.84-35 135.63-35 135.63 0 132.84 0ZM151.23 8.35Q154.58 7.1 154.58 3.15L154.58 3.15 154.58-2.45Q153.63-0.85 151.73-0.13 149.83 0.6 147.63 0.6L147.63 0.6Q143.23 0.6 140.86-1.78 138.48-4.15 138.48-8.8L138.48-8.8 138.48-25.05 141.18-25.05 141.18-8.3Q141.18-5.1 142.93-3.53 144.68-1.95 147.63-1.95L147.63-1.95Q150.73-1.95 152.63-3.5 154.53-5.05 154.53-8.3L154.53-8.3 154.53-18.15Q154.53-20.55 154.68-21.73 154.83-22.9 155.61-23.93 156.38-24.95 158.18-25.5L158.18-25.5 158.93-23.6Q157.23-22.85 157.23-20.1L157.23-20.1 157.23 3.05Q157.23 6.1 156.03 7.85 154.83 9.6 151.98 10.5L151.98 10.5 151.23 8.35ZM193.03-1.75Q191.23-0.6 188.93 0 186.63 0.6 184.33 0.6L184.33 0.6Q180.63 0.6 178.45-1.23 176.28-3.05 176.28-6.7L176.28-6.7 176.28-16.95Q176.28-21 178.8-23.25 181.33-25.5 185.48-25.5L185.48-25.5Q189.63-25.5 191.95-23.28 194.28-21.05 194.28-17.1L194.28-17.1 194.28-10.6 179.08-9.75 179.08-6.7Q179.08-4.3 180.63-3.1 182.18-1.9 184.68-1.9L184.68-1.9Q188.18-1.9 191.93-3.9L191.93-3.9 193.03-1.75ZM191.48-17.45Q191.48-20.55 189.53-21.83 187.58-23.1 185.43-23.1L185.43-23.1Q182.68-23.1 180.88-21.6 179.08-20.1 179.08-16.9L179.08-16.9 179.08-12.5 191.48-13.1 191.48-17.45ZM214.23 0L208.08-9.85 201.93 0 198.63 0 206.43-12.45 198.63-25.05 201.78-25.05 208.08-15.05 214.38-25.05 217.53-25.05 209.68-12.45 217.53 0 214.23 0ZM223.07 10.5L223.07-25.05 225.87-25.05 225.62-22.5Q226.97-23.95 228.8-24.7 230.62-25.45 232.42-25.45L232.42-25.45Q237.07-25.45 239.5-22.75 241.92-20.05 241.92-15.75L241.92-15.75 241.92-8.8Q241.92-4.25 239.37-1.83 236.82 0.6 232.62 0.6L232.62 0.6Q230.47 0.6 228.82 0 227.17-0.6 225.87-2.1L225.87-2.1 225.87 9.4 223.07 10.5ZM239.12-15.95Q239.12-19.6 237.2-21.25 235.27-22.9 232.62-22.9L232.62-22.9Q229.92-22.9 227.97-21.28 226.02-19.65 225.87-16.2L225.87-16.2 225.87-8.3Q225.87-5.05 227.72-3.5 229.57-1.95 232.62-1.95L232.62-1.95Q235.37-1.95 237.25-3.58 239.12-5.2 239.12-8.3L239.12-8.3 239.12-15.95ZM246.62 0L246.62-25.05 249.42-25.05 249.27-23.3Q251.62-25.5 255.42-25.5L255.42-25.5Q256.77-25.5 259.12-25.05L259.12-25.05 258.37-22.5Q256.77-23 255.02-23L255.02-23Q252.72-23 251.07-22.15 249.42-21.3 249.42-19.6L249.42-19.6 249.42 0 246.62 0ZM276.42-1.75Q274.62-0.6 272.32 0 270.02 0.6 267.72 0.6L267.72 0.6Q264.02 0.6 261.84-1.23 259.67-3.05 259.67-6.7L259.67-6.7 259.67-16.95Q259.67-21 262.19-23.25 264.72-25.5 268.87-25.5L268.87-25.5Q273.02-25.5 275.34-23.28 277.67-21.05 277.67-17.1L277.67-17.1 277.67-10.6 262.47-9.75 262.47-6.7Q262.47-4.3 264.02-3.1 265.57-1.9 268.07-1.9L268.07-1.9Q271.57-1.9 275.32-3.9L275.32-3.9 276.42-1.75ZM274.87-17.45Q274.87-20.55 272.92-21.83 270.97-23.1 268.82-23.1L268.82-23.1Q266.07-23.1 264.27-21.6 262.47-20.1 262.47-16.9L262.47-16.9 262.47-12.5 274.87-13.1 274.87-17.45ZM284.06-6.35Q284.37-4.1 286.31-2.98 288.26-1.85 290.67-1.85L290.67-1.85Q292.92-1.85 294.76-2.88 296.62-3.9 296.62-6.2L296.62-6.2Q296.62-7.7 295.74-8.68 294.87-9.65 293.56-10.25 292.26-10.85 290.06-11.55L290.06-11.55Q287.62-12.35 286.06-13.05 284.51-13.75 283.37-15.03 282.22-16.3 282.01-18.25L282.01-18.25 281.97-18.85Q281.97-20.5 282.89-22.08 283.81-23.65 285.74-24.65 287.67-25.65 290.56-25.65L290.56-25.65Q292.17-25.65 293.39-25.33 294.62-25 295.31-24.65 296.01-24.3 296.17-24.2L296.17-24.2 295.22-21.9Q295.06-22 294.49-22.3 293.92-22.6 292.87-22.9 291.81-23.2 290.56-23.2L290.56-23.2Q288.17-23.2 286.47-22.08 284.76-20.95 284.76-18.95L284.76-18.95Q284.76-17.05 286.31-16.05 287.87-15.05 291.06-14.05L291.06-14.05Q293.76-13.15 295.42-12.35 297.06-11.55 298.24-10.08 299.42-8.6 299.42-6.25L299.42-6.25Q299.42-3.25 297.19-1.25 294.97 0.75 290.67 0.75L290.67 0.75Q287.81 0.75 285.74-0.23 283.67-1.2 282.59-2.8 281.51-4.4 281.42-6.35L281.42-6.35 284.06-6.35ZM305.61-6.35Q305.91-4.1 307.86-2.98 309.81-1.85 312.21-1.85L312.21-1.85Q314.46-1.85 316.31-2.88 318.16-3.9 318.16-6.2L318.16-6.2Q318.16-7.7 317.29-8.68 316.41-9.65 315.11-10.25 313.81-10.85 311.61-11.55L311.61-11.55Q309.16-12.35 307.61-13.05 306.06-13.75 304.91-15.03 303.76-16.3 303.56-18.25L303.56-18.25 303.51-18.85Q303.51-20.5 304.44-22.08 305.36-23.65 307.29-24.65 309.21-25.65 312.11-25.65L312.11-25.65Q313.71-25.65 314.94-25.33 316.16-25 316.86-24.65 317.56-24.3 317.71-24.2L317.71-24.2 316.76-21.9Q316.61-22 316.04-22.3 315.46-22.6 314.41-22.9 313.36-23.2 312.11-23.2L312.11-23.2Q309.71-23.2 308.01-22.08 306.31-20.95 306.31-18.95L306.31-18.95Q306.31-17.05 307.86-16.05 309.41-15.05 312.61-14.05L312.61-14.05Q315.31-13.15 316.96-12.35 318.61-11.55 319.79-10.08 320.96-8.6 320.96-6.25L320.96-6.25Q320.96-3.25 318.74-1.25 316.51 0.75 312.21 0.75L312.21 0.75Q309.36 0.75 307.29-0.23 305.21-1.2 304.14-2.8 303.06-4.4 302.96-6.35L302.96-6.35 305.61-6.35ZM342.21-32.15Q341.56-32.15 341.03-32.68 340.51-33.2 340.51-33.85L340.51-33.85Q340.51-34.5 341.01-35 341.51-35.5 342.21-35.5L342.21-35.5Q342.91-35.5 343.38-35.02 343.86-34.55 343.86-33.85L343.86-33.85Q343.86-33.15 343.36-32.65 342.86-32.15 342.21-32.15L342.21-32.15ZM340.76 0L340.76-25.05 343.56-25.05 343.56 0 340.76 0ZM380.21 0L380.21-17.15Q380.21-20.15 378.63-21.55 377.06-22.95 374.56-22.95L374.56-22.95Q372.61-22.95 370.21-22.1L370.21-22.1 368.36-21.2Q369.21-19.5 369.21-17.3L369.21-17.3 369.21 0 366.46 0 366.46-17.15Q366.46-20.2 364.88-21.58 363.31-22.95 360.75-22.95L360.75-22.95Q359.21-22.95 357.56-22.48 355.91-22 354.56-21.25L354.56-21.25 354.56 0 351.75 0 351.75-25.05 354.56-25.05 354.31-23.45Q357.61-25.4 361.06-25.4L361.06-25.4Q362.86-25.4 364.43-24.8 366-24.2 367.11-23.05L367.11-23.05Q367.81-23.45 369.21-24.15L369.21-24.15Q372.16-25.5 374.91-25.5L374.91-25.5Q378.46-25.5 380.71-23.33 382.96-21.15 382.96-17.3L382.96-17.3 382.96 0 380.21 0ZM388.5 10.5L388.5-25.05 391.3-25.05 391.05-22.5Q392.4-23.95 394.23-24.7 396.05-25.45 397.85-25.45L397.85-25.45Q402.5-25.45 404.93-22.75 407.35-20.05 407.35-15.75L407.35-15.75 407.35-8.8Q407.35-4.25 404.8-1.83 402.25 0.6 398.05 0.6L398.05 0.6Q395.9 0.6 394.25 0 392.6-0.6 391.3-2.1L391.3-2.1 391.3 9.4 388.5 10.5ZM404.55-15.95Q404.55-19.6 402.63-21.25 400.7-22.9 398.05-22.9L398.05-22.9Q395.35-22.9 393.4-21.28 391.45-19.65 391.3-16.2L391.3-16.2 391.3-8.3Q391.3-5.05 393.15-3.5 395-1.95 398.05-1.95L398.05-1.95Q400.8-1.95 402.68-3.58 404.55-5.2 404.55-8.3L404.55-8.3 404.55-15.95ZM412.05 0L412.05-25.05 414.85-25.05 414.7-23.3Q417.05-25.5 420.85-25.5L420.85-25.5Q422.2-25.5 424.55-25.05L424.55-25.05 423.8-22.5Q422.2-23 420.45-23L420.45-23Q418.15-23 416.5-22.15 414.85-21.3 414.85-19.6L414.85-19.6 414.85 0 412.05 0ZM441.85-1.75Q440.05-0.6 437.75 0 435.45 0.6 433.15 0.6L433.15 0.6Q429.45 0.6 427.27-1.23 425.1-3.05 425.1-6.7L425.1-6.7 425.1-16.95Q425.1-21 427.62-23.25 430.15-25.5 434.3-25.5L434.3-25.5Q438.45-25.5 440.77-23.28 443.1-21.05 443.1-17.1L443.1-17.1 443.1-10.6 427.9-9.75 427.9-6.7Q427.9-4.3 429.45-3.1 431-1.9 433.5-1.9L433.5-1.9Q437-1.9 440.75-3.9L440.75-3.9 441.85-1.75ZM440.3-17.45Q440.3-20.55 438.35-21.83 436.4-23.1 434.25-23.1L434.25-23.1Q431.5-23.1 429.7-21.6 427.9-20.1 427.9-16.9L427.9-16.9 427.9-12.5 440.3-13.1 440.3-17.45ZM449.49-6.35Q449.79-4.1 451.74-2.98 453.69-1.85 456.09-1.85L456.09-1.85Q458.34-1.85 460.19-2.88 462.04-3.9 462.04-6.2L462.04-6.2Q462.04-7.7 461.17-8.68 460.29-9.65 458.99-10.25 457.69-10.85 455.49-11.55L455.49-11.55Q453.04-12.35 451.49-13.05 449.94-13.75 448.79-15.03 447.64-16.3 447.44-18.25L447.44-18.25 447.39-18.85Q447.39-20.5 448.32-22.08 449.24-23.65 451.17-24.65 453.09-25.65 455.99-25.65L455.99-25.65Q457.59-25.65 458.82-25.33 460.04-25 460.74-24.65 461.44-24.3 461.59-24.2L461.59-24.2 460.64-21.9Q460.49-22 459.92-22.3 459.34-22.6 458.29-22.9 457.24-23.2 455.99-23.2L455.99-23.2Q453.59-23.2 451.89-22.08 450.19-20.95 450.19-18.95L450.19-18.95Q450.19-17.05 451.74-16.05 453.29-15.05 456.49-14.05L456.49-14.05Q459.19-13.15 460.84-12.35 462.49-11.55 463.67-10.08 464.84-8.6 464.84-6.25L464.84-6.25Q464.84-3.25 462.62-1.25 460.39 0.75 456.09 0.75L456.09 0.75Q453.24 0.75 451.17-0.23 449.09-1.2 448.02-2.8 446.94-4.4 446.84-6.35L446.84-6.35 449.49-6.35ZM471.04-6.35Q471.34-4.1 473.29-2.98 475.24-1.85 477.64-1.85L477.64-1.85Q479.89-1.85 481.74-2.88 483.59-3.9 483.59-6.2L483.59-6.2Q483.59-7.7 482.72-8.68 481.84-9.65 480.54-10.25 479.24-10.85 477.04-11.55L477.04-11.55Q474.59-12.35 473.04-13.05 471.49-13.75 470.34-15.03 469.19-16.3 468.99-18.25L468.99-18.25 468.94-18.85Q468.94-20.5 469.87-22.08 470.79-23.65 472.72-24.65 474.64-25.65 477.54-25.65L477.54-25.65Q479.14-25.65 480.37-25.33 481.59-25 482.29-24.65 482.99-24.3 483.14-24.2L483.14-24.2 482.19-21.9Q482.04-22 481.47-22.3 480.89-22.6 479.84-22.9 478.79-23.2 477.54-23.2L477.54-23.2Q475.14-23.2 473.44-22.08 471.74-20.95 471.74-18.95L471.74-18.95Q471.74-17.05 473.29-16.05 474.84-15.05 478.04-14.05L478.04-14.05Q480.74-13.15 482.39-12.35 484.04-11.55 485.22-10.08 486.39-8.6 486.39-6.25L486.39-6.25Q486.39-3.25 484.17-1.25 481.94 0.75 477.64 0.75L477.64 0.75Q474.79 0.75 472.72-0.23 470.64-1.2 469.57-2.8 468.49-4.4 468.39-6.35L468.39-6.35 471.04-6.35ZM493.74-32.15Q493.09-32.15 492.56-32.68 492.04-33.2 492.04-33.85L492.04-33.85Q492.04-34.5 492.54-35 493.04-35.5 493.74-35.5L493.74-35.5Q494.44-35.5 494.91-35.02 495.39-34.55 495.39-33.85L495.39-33.85Q495.39-33.15 494.89-32.65 494.39-32.15 493.74-32.15L493.74-32.15ZM492.29 0L492.29-25.05 495.09-25.05 495.09 0 492.29 0ZM521.94-9.2Q521.94-5 519.64-2.25 517.34 0.5 512.69 0.5L512.69 0.5Q508.04 0.5 505.66-2.27 503.29-5.05 503.29-9.2L503.29-9.2 503.29-15.8Q503.29-20.55 505.71-23.08 508.14-25.6 512.69-25.6L512.69-25.6Q517.04-25.6 519.49-22.98 521.94-20.35 521.94-15.8L521.94-15.8 521.94-9.2ZM519.14-15.8Q519.14-19.55 517.41-21.3 515.69-23.05 512.69-23.05L512.69-23.05Q509.59-23.05 507.84-21.3 506.09-19.55 506.09-15.8L506.09-15.8 506.09-8.7Q506.09-5.7 507.86-3.85 509.64-2 512.69-2L512.69-2Q515.79-2 517.46-3.83 519.14-5.65 519.14-8.7L519.14-8.7 519.14-15.8ZM542.48 0L542.48-17.15Q542.48-20.2 540.71-21.58 538.93-22.95 536.13-22.95L536.13-22.95Q534.43-22.95 532.68-22.48 530.93-22 529.58-21.25L529.58-21.25 529.58 0 526.78 0 526.78-25.05 529.58-25.05 529.38-23.35Q530.58-24.4 532.43-24.93 534.28-25.45 536.28-25.45L536.28-25.45Q539.03-25.45 540.98-24.55L540.98-24.55Q542.98-23.65 544.11-21.85 545.23-20.05 545.23-17.3L545.23-17.3 545.23 0 542.48 0ZM553.03-6.35Q553.33-4.1 555.28-2.98 557.23-1.85 559.63-1.85L559.63-1.85Q561.88-1.85 563.73-2.88 565.58-3.9 565.58-6.2L565.58-6.2Q565.58-7.7 564.71-8.68 563.83-9.65 562.53-10.25 561.23-10.85 559.03-11.55L559.03-11.55Q556.58-12.35 555.03-13.05 553.48-13.75 552.33-15.03 551.18-16.3 550.98-18.25L550.98-18.25 550.93-18.85Q550.93-20.5 551.86-22.08 552.78-23.65 554.71-24.65 556.63-25.65 559.53-25.65L559.53-25.65Q561.13-25.65 562.36-25.33 563.58-25 564.28-24.65 564.98-24.3 565.13-24.2L565.13-24.2 564.18-21.9Q564.03-22 563.46-22.3 562.88-22.6 561.83-22.9 560.78-23.2 559.53-23.2L559.53-23.2Q557.13-23.2 555.43-22.08 553.73-20.95 553.73-18.95L553.73-18.95Q553.73-17.05 555.28-16.05 556.83-15.05 560.03-14.05L560.03-14.05Q562.73-13.15 564.38-12.35 566.03-11.55 567.21-10.08 568.38-8.6 568.38-6.25L568.38-6.25Q568.38-3.25 566.16-1.25 563.93 0.75 559.63 0.75L559.63 0.75Q556.78 0.75 554.71-0.23 552.63-1.2 551.56-2.8 550.48-4.4 550.38-6.35L550.38-6.35 553.03-6.35Z" opacity="1" transform="matrix(1,0,0,1,0,0)" fill="#6936f5" class="undefined-text-1" data-fill-palette-color="secondary" id="text-1"></path></svg></g></svg></g></svg></g></svg></g><g><svg viewBox="0 0 205.96233416489127 110.22325820976639" height="110.22325820976639" width="205.96233416489127"><g><svg xmlns="http://www.w3.org/2000/svg" viewBox="1.9977636337280273 6.601045608520508 20.004474639892578 10.705638885498047" x="0" y="0" height="110.22325820976639" width="205.96233416489127" class="icon-icon-0" data-fill-palette-color="accent" id="icon-0"><g data-name="11" fill="#6936f5" data-fill-palette-color="accent"><circle cx="12" cy="12" r="2.3" fill="#6936f5" data-fill-palette-color="accent"></circle><path d="M21.55 11.17L17 8.13a8.94 8.94 0 0 0-10 0l-4.56 3a1 1 0 0 0 0 1.66l4.56 3a9 9 0 0 0 10 0l4.56-3a1 1 0 0 0 0-1.66ZM12 15.75A3.75 3.75 0 1 1 15.75 12 3.75 3.75 0 0 1 12 15.75Z" fill="#6936f5" data-fill-palette-color="accent"></path></g></svg></g></svg></g></svg></g><defs></defs></svg><rect width="395.52" height="71.10608765737564" fill="none" stroke="none" visibility="hidden"></rect></g></svg></g></svg>