<svg width="300" viewBox="0 0 475 356" fill="none" xmlns="http://www.w3.org/2000/svg">
<path d="M282.256 72.0142C282.256 59.9392 274.644 49.6267 263.994 45.5767C260.469 32.4517 248.506 22.7767 234.294 22.7767C233.019 22.7767 231.744 22.8517 230.506 23.0017C226.381 16.6267 219.219 12.3892 211.081 12.3892C206.169 12.3892 201.594 13.9267 197.844 16.5517C191.544 9.65166 182.469 5.30166 172.381 5.30166C164.431 5.30166 157.119 8.00166 151.306 12.5017C143.656 6.57666 134.019 3.01416 123.594 3.01416C109.231 3.01416 96.4437 9.68916 88.1562 20.1142C83.2437 17.3767 77.5812 15.8392 71.5437 15.8392C57.7062 15.8392 45.7437 24.0142 40.3062 35.7892C39.4812 35.7142 38.6937 35.6767 37.8687 35.6767C18.8562 35.6767 3.40625 51.0892 3.40625 70.1392C3.40625 84.3517 12.0312 96.5767 24.3312 101.827C26.9937 111.689 35.9938 118.927 46.6812 118.927C49.1562 118.927 51.5187 118.552 53.7687 117.802C59.1687 126.652 68.9187 132.539 80.0187 132.539C87.7062 132.539 94.7187 129.727 100.119 125.077C107.131 129.539 115.456 132.127 124.381 132.127C133.756 132.127 142.456 129.277 149.694 124.402C153.819 130.814 160.981 135.052 169.156 135.052C175.869 135.052 181.869 132.202 186.106 127.664C190.344 129.127 194.881 129.877 199.606 129.877C210.481 129.877 220.344 125.752 227.806 118.964C229.644 119.452 231.594 119.677 233.581 119.677C245.169 119.677 254.731 111.164 256.456 100.102C270.894 98.9392 282.256 86.8267 282.256 72.0142Z" fill="white"/>
<path d="M37.8571 36.9641C36.9196 37.1141 35.7946 37.2641 34.5196 37.5266C33.2446 37.7516 31.8571 38.0891 30.3196 38.5391C27.2821 39.4391 23.8321 40.9016 20.4571 43.2641C19.5946 43.8266 18.7696 44.5016 17.9446 45.2141C17.0821 45.8891 16.3321 46.6766 15.5071 47.4641C13.9696 49.1141 12.4696 50.9141 11.1946 52.9766C9.9196 55.0391 8.8321 57.2891 7.9696 59.6891C7.1071 62.0891 6.5821 64.6766 6.2821 67.3391C5.7196 72.5516 6.5446 77.6891 8.2321 82.1141C9.9571 86.5391 12.5071 90.3266 15.3571 93.2516C16.7446 94.7516 18.2446 95.9891 19.7071 97.1141C20.4571 97.6391 21.1696 98.1641 21.8821 98.6141C22.6321 99.0266 23.3071 99.5141 24.0196 99.8891C24.7321 100.264 25.4071 100.602 26.0446 100.939C26.7196 101.239 27.3196 101.502 27.9196 101.764C28.5196 102.027 29.0821 102.214 29.6446 102.439C29.9071 102.552 30.1696 102.664 30.4321 102.739C30.6946 102.814 30.9196 102.889 31.1446 102.964C33.4696 103.752 33.3196 105.364 30.5446 105.214C28.4071 105.064 25.5196 104.614 22.2196 103.302C18.9196 102.027 15.2071 99.9266 11.7196 96.7766C10.8196 96.0266 9.9946 95.1266 9.1321 94.2266C8.7196 93.7766 8.3071 93.2891 7.9321 92.8016C7.5196 92.3141 7.1071 91.8266 6.7696 91.2641C6.3946 90.7391 6.0196 90.1766 5.6446 89.6516C5.3071 89.0891 4.9696 88.4891 4.6321 87.9266C4.2571 87.3641 3.9571 86.7266 3.6571 86.1266C3.3571 85.4891 3.0196 84.8891 2.7946 84.2141C2.5321 83.5391 2.2696 82.9016 2.0071 82.2266C1.7821 81.5516 1.5946 80.8391 1.3696 80.1641C1.1446 79.4891 0.994602 78.7391 0.844602 78.0266C0.694602 77.3141 0.507102 76.6016 0.432102 75.8516C-0.0553976 72.8891 -0.130398 69.8141 0.207102 66.7391C0.544602 63.5141 1.2571 60.4016 2.3071 57.5516C3.3946 54.6641 4.8196 52.0391 6.4321 49.6391C6.8446 49.0391 7.2571 48.4766 7.6696 47.9141C8.1196 47.3516 8.5696 46.8266 9.0196 46.3016C9.4696 45.7766 9.9571 45.2891 10.4071 44.8016C10.6321 44.5766 10.8946 44.3141 11.1196 44.0891L11.4571 43.7516L11.8321 43.4141C12.3196 42.9641 12.8446 42.5516 13.3321 42.1391C13.8196 41.7266 14.3446 41.3516 14.8696 40.9766C15.3946 40.6016 15.8821 40.2266 16.4071 39.9266C16.9321 39.5891 17.4196 39.2891 17.9446 38.9891C22.0696 36.6266 26.1571 35.4266 29.6071 34.9391C31.3321 34.6766 32.9071 34.6016 34.2571 34.6016C35.6446 34.6016 36.8071 34.7516 37.7821 34.9016C39.8821 35.1641 40.0321 36.7016 37.8571 36.9641Z" fill="black"/>
<path d="M93.3567 25.5643C92.7192 25.1893 92.0442 24.6643 91.1817 24.1768C90.7692 23.9143 90.3192 23.6518 89.8317 23.3893C89.3442 23.1268 88.8192 22.8643 88.2942 22.6018C86.1192 21.5518 83.5317 20.4268 80.4567 19.7143C77.3817 19.0018 73.8942 18.6268 70.1817 18.8518C66.4692 19.0768 62.5692 19.9393 58.8192 21.5143L58.1067 21.7768C57.8817 21.8893 57.6567 22.0018 57.4317 22.1143C56.9817 22.3393 56.5692 22.5268 56.1192 22.7518C55.6692 22.9393 55.2942 23.2393 54.8817 23.4643C54.4692 23.7268 54.0567 23.9518 53.6817 24.2518C52.8942 24.8143 52.1067 25.3393 51.3567 25.9393C50.6067 26.5018 49.9317 27.1393 49.2192 27.7393C46.5192 30.2143 44.4192 32.9518 42.8067 35.6518C41.1942 38.3143 40.1067 40.9393 39.3567 43.2643C38.6067 45.5518 38.1567 47.5393 37.8567 49.0393C37.4442 50.8768 35.8317 50.9518 35.5317 48.8518C35.3817 48.0268 35.3817 47.0893 35.3442 45.9643C35.3067 45.4018 35.3817 44.8393 35.4192 44.2018C35.4567 43.9018 35.4567 43.5643 35.4942 43.2643C35.5317 42.9268 35.5692 42.6268 35.6442 42.2893C36.0192 39.5893 36.8442 36.4393 38.4192 33.1768C38.6067 32.7643 38.8317 32.3518 39.0192 31.9393C39.2442 31.5268 39.4692 31.1143 39.6942 30.7018C39.9192 30.2893 40.1817 29.8768 40.4442 29.4643C40.7067 29.0518 41.0067 28.6393 41.2692 28.2268C41.4192 28.0393 41.5692 27.8143 41.6817 27.5893C41.8317 27.4018 41.9817 27.1768 42.1317 26.9893C42.4317 26.5768 42.7692 26.2018 43.0692 25.7893C43.4067 25.3768 43.7442 25.0018 44.1192 24.6268C44.4567 24.2518 44.8317 23.8393 45.2067 23.4643C45.5817 23.0893 45.9942 22.7143 46.3692 22.3393C46.7442 21.9643 47.1942 21.6268 47.6067 21.2518C48.4317 20.5018 49.3317 19.8643 50.2692 19.1893C50.7192 18.8518 51.2442 18.5518 51.7317 18.2518C52.2192 17.9518 52.7067 17.6143 53.2317 17.3518C53.7567 17.0893 54.2817 16.8268 54.8067 16.5643C55.0692 16.4518 55.3317 16.3018 55.5942 16.1893L56.4192 15.8518C60.9942 13.9393 65.7192 13.0768 70.1067 13.0018C74.4942 12.9643 78.5817 13.7518 81.9942 14.9518C85.4442 16.1518 88.2192 17.8393 90.3567 19.4518C90.8817 19.8643 91.3692 20.2768 91.8567 20.6518C92.3067 21.0643 92.6817 21.4768 93.0567 21.8518C93.4317 22.2268 93.7692 22.5643 94.0692 22.9393C94.3317 23.3143 94.5942 23.6518 94.8192 23.9518C95.7567 25.3018 94.8192 26.4643 93.3567 25.5643Z" fill="black"/>
<path d="M201.095 23.6516C199.332 21.7016 196.482 18.1766 191.907 14.9891C191.345 14.5766 190.745 14.2016 190.107 13.8266C189.807 13.6391 189.47 13.4516 189.17 13.2641C188.832 13.0766 188.532 12.8891 188.195 12.7016C186.845 11.9891 185.42 11.3141 183.882 10.7516C182.345 10.1891 180.732 9.70157 179.045 9.32657C177.357 8.95157 175.595 8.72657 173.832 8.61407C170.307 8.38907 166.895 8.76407 163.782 9.51407C160.67 10.3016 157.82 11.4266 155.382 12.7016C150.47 15.2891 147.17 18.3641 145.145 20.1641C143.907 21.2891 142.52 20.4266 143.345 18.7016C143.982 17.3891 144.995 15.7016 146.57 13.8641C148.107 12.0266 150.207 10.0766 152.832 8.27657C155.457 6.47657 158.645 4.86407 162.282 3.77657C165.92 2.68907 170.007 2.12657 174.207 2.42657C176.382 2.57657 178.52 2.91407 180.507 3.40157C182.532 3.92657 184.445 4.60157 186.207 5.35157C189.77 6.92657 192.77 8.98907 195.17 11.1266C197.57 13.2641 199.332 15.5141 200.57 17.5016C201.807 19.4891 202.557 21.2516 202.932 22.5641C203.345 23.9516 202.07 24.8141 201.095 23.6516Z" fill="black"/>
<path d="M148.97 12.5892C147.77 12.1017 146.157 11.3517 144.207 10.4892C142.257 9.62668 139.932 8.68918 137.307 7.93918C135.995 7.56418 134.607 7.18918 133.145 6.92668C132.77 6.85168 132.432 6.81418 132.057 6.73918C131.682 6.66418 131.307 6.66418 130.895 6.58918C130.107 6.51418 129.32 6.36418 128.532 6.32668C125.27 6.02668 121.82 6.10168 118.257 6.51418C114.77 6.92668 111.432 7.71418 108.395 8.72668C105.357 9.70168 102.62 11.0142 100.257 12.3267C95.4575 14.9517 92.0825 17.8017 89.9825 19.4142C88.6325 20.3892 87.395 19.4142 88.295 17.8017C88.4825 17.5017 88.67 17.1642 88.895 16.8267C89.0075 16.6392 89.12 16.4517 89.2325 16.3017C89.345 16.1142 89.495 15.9267 89.645 15.7392C89.945 15.3642 90.245 14.9892 90.545 14.5767C90.8825 14.1642 91.22 13.7142 91.595 13.3017C92.0075 12.8892 92.42 12.4392 92.8325 11.9892C93.0575 11.7642 93.2825 11.5392 93.5075 11.3142C93.7325 11.0892 93.995 10.8642 94.2575 10.6392C94.7825 10.1892 95.3075 9.73918 95.8325 9.25168C96.395 8.80168 96.995 8.38918 97.6325 7.93918C100.107 6.17668 103.07 4.45168 106.445 3.13918C109.82 1.82668 113.57 0.814182 117.545 0.326682C121.67 -0.160818 125.682 -0.0858184 129.32 0.439182C130.22 0.551682 131.12 0.776682 132.02 0.926682C132.882 1.07668 133.782 1.30168 134.607 1.52668C136.257 2.01418 137.795 2.57668 139.22 3.21418C142.032 4.45168 144.357 5.91418 146.157 7.22668C147.957 8.57668 149.307 9.81418 150.17 10.7517C151.07 11.8392 150.357 13.1517 148.97 12.5892Z" fill="black"/>
<path d="M94.8569 120.252C95.1194 120.402 95.4194 120.552 95.7194 120.739C96.0194 120.927 96.3569 121.114 96.7319 121.302C97.4444 121.714 98.2694 122.164 99.1319 122.652C100.932 123.589 103.032 124.677 105.507 125.614C107.982 126.552 110.757 127.414 113.832 128.014C116.907 128.614 120.207 128.952 123.657 128.952C127.032 128.914 130.294 128.577 133.332 128.014C136.369 127.414 139.144 126.589 141.582 125.689C144.057 124.789 146.194 123.777 147.994 122.877C148.894 122.389 149.719 121.977 150.432 121.564C150.807 121.377 151.144 121.189 151.482 121.002C151.819 120.814 152.119 120.664 152.382 120.514C153.807 119.764 154.894 120.964 153.807 122.352C152.982 123.439 151.707 124.752 150.019 126.177C148.294 127.564 146.119 129.064 143.532 130.377C140.944 131.727 137.907 132.889 134.532 133.752C131.157 134.577 127.482 135.102 123.619 135.102C119.644 135.102 115.819 134.614 112.369 133.714C108.919 132.814 105.844 131.539 103.219 130.114C100.632 128.689 98.4944 127.114 96.8819 125.689C96.0944 124.939 95.3819 124.264 94.8194 123.589C94.5194 123.252 94.2569 122.952 94.0319 122.652C93.8069 122.352 93.6194 122.052 93.4319 121.789C92.6819 120.739 93.6194 119.539 94.8569 120.252Z" fill="black"/>
<path d="M180.507 124.339C180.769 124.377 181.032 124.452 181.332 124.527C181.632 124.602 181.969 124.677 182.307 124.752C182.982 124.939 183.769 125.127 184.594 125.314C186.282 125.689 188.269 126.139 190.519 126.402C192.769 126.702 195.244 126.889 197.907 126.852C200.569 126.814 203.382 126.514 206.269 125.989C209.119 125.427 211.782 124.677 214.257 123.739C216.694 122.802 218.944 121.752 220.894 120.702C222.844 119.614 224.569 118.527 225.994 117.589C227.457 116.577 228.619 115.752 229.519 115.152C230.682 114.402 231.919 115.414 231.207 116.764C230.682 117.814 229.782 119.089 228.507 120.552C227.232 121.977 225.619 123.552 223.594 125.052C221.569 126.552 219.169 128.014 216.432 129.252C213.694 130.452 210.657 131.464 207.394 132.102C204.019 132.739 200.719 132.964 197.644 132.777C194.569 132.627 191.757 132.102 189.319 131.389C186.882 130.677 184.819 129.777 183.169 128.877C182.344 128.389 181.632 127.977 181.032 127.527C180.732 127.302 180.432 127.114 180.207 126.889C179.944 126.664 179.719 126.477 179.532 126.289C178.707 125.464 179.307 124.077 180.507 124.339Z" fill="black"/>
<path d="M25.3698 103.077C26.3448 104.052 27.6198 105.814 29.4198 107.727C29.6448 107.952 29.9073 108.214 30.1323 108.439C30.3948 108.664 30.6198 108.927 30.8823 109.189C31.4448 109.677 31.9698 110.164 32.5698 110.652C33.7698 111.627 35.0823 112.564 36.5823 113.352C38.0448 114.139 39.5073 114.814 40.9323 115.302C42.3573 115.789 43.7448 116.164 45.0198 116.389C45.3573 116.464 45.6573 116.502 45.9573 116.539C46.2573 116.577 46.5573 116.652 46.8573 116.689C47.4573 116.764 47.9823 116.839 48.5073 116.914C49.0323 116.952 49.4823 117.027 49.9323 117.102C50.3823 117.139 50.7573 117.177 51.0948 117.252C51.9573 117.439 52.4073 118.977 51.5823 119.539C51.2823 119.764 50.8698 119.989 50.4198 120.214C49.9698 120.402 49.4448 120.627 48.8448 120.814C48.2448 121.002 47.6073 121.114 46.8948 121.264C46.1823 121.339 45.4323 121.452 44.6073 121.489C42.9573 121.564 41.1573 121.377 39.2823 120.964C37.4073 120.514 35.4573 119.764 33.5823 118.752C31.6323 117.702 29.9448 116.352 28.5573 114.927C27.8448 114.252 27.2448 113.464 26.6823 112.789C26.1573 112.039 25.6698 111.327 25.2573 110.614C23.6448 107.764 23.1948 105.214 23.3073 103.789C23.4198 103.039 24.8448 102.514 25.3698 103.077Z" fill="black"/>
<path d="M228.358 22.5641C228.058 22.4141 227.721 22.2266 227.346 22.0016C227.008 21.7766 226.558 21.5516 226.146 21.2891C225.283 20.7266 224.233 20.1641 223.108 19.5266C220.821 18.2891 217.933 17.0891 214.671 16.3391C211.483 15.6641 208.408 15.5516 205.896 15.7391C205.258 15.7391 204.658 15.8891 204.096 15.9266C203.496 15.9641 202.971 16.0766 202.483 16.1516C201.471 16.2641 200.646 16.4516 199.933 16.4891C199.071 16.5266 198.208 15.1766 198.846 14.4266C199.071 14.1266 199.408 13.8266 199.746 13.4891C199.821 13.4141 199.933 13.3016 200.046 13.2266C200.158 13.1516 200.271 13.0766 200.383 13.0016C200.608 12.8516 200.833 12.7016 201.096 12.5141C201.358 12.3641 201.621 12.1766 201.883 12.0266C202.183 11.8391 202.483 11.7266 202.783 11.5766C203.421 11.2766 204.133 10.9391 204.883 10.7516C207.921 9.77662 211.933 9.43912 216.021 10.3391C220.258 11.3141 223.783 13.3391 226.108 15.5141C227.271 16.6016 228.208 17.6891 228.808 18.6641C229.483 19.6391 229.821 20.5391 230.008 21.2141C230.196 21.9266 229.071 22.9016 228.358 22.5641Z" fill="black"/>
<path d="M229.519 118.414C231.207 118.077 234.019 117.889 237.282 116.839C238.107 116.614 238.932 116.202 239.794 115.902C240.019 115.827 240.207 115.714 240.432 115.602C240.657 115.489 240.844 115.377 241.069 115.264C241.294 115.152 241.519 115.039 241.707 114.964C241.932 114.852 242.119 114.702 242.344 114.589C242.569 114.477 242.757 114.327 242.982 114.214C243.207 114.102 243.432 113.952 243.619 113.802C244.032 113.502 244.444 113.202 244.894 112.902C245.307 112.564 245.682 112.227 246.094 111.889L246.394 111.627L246.694 111.327C246.882 111.139 247.069 110.952 247.257 110.764C248.757 109.227 249.994 107.577 251.007 105.852C251.269 105.439 251.457 104.989 251.682 104.577C251.794 104.352 251.907 104.164 252.019 103.939C252.094 103.714 252.207 103.527 252.282 103.302C252.469 102.889 252.657 102.477 252.807 102.064C252.957 101.652 253.107 101.239 253.219 100.827C253.369 100.414 253.444 100.039 253.557 99.6268C253.669 99.2518 253.782 98.8393 253.857 98.5018C253.969 97.7518 254.157 97.0393 254.269 96.4018C254.344 95.7268 254.457 95.1268 254.569 94.5643C254.644 94.0018 254.682 93.5143 254.757 93.1018C254.944 92.0143 256.519 91.6393 257.082 92.8018C257.269 93.2518 257.532 93.7768 257.719 94.3768C257.869 94.9768 258.057 95.6893 258.207 96.4768C258.319 97.2643 258.357 98.1268 258.432 99.0643C258.394 99.5143 258.394 100.002 258.357 100.489C258.319 100.977 258.319 101.502 258.207 102.027C258.132 102.552 258.019 103.077 257.944 103.639C257.832 104.202 257.682 104.727 257.532 105.289C257.457 105.552 257.382 105.852 257.269 106.152C257.194 106.414 257.044 106.714 256.969 106.977C256.744 107.539 256.519 108.102 256.257 108.664C255.169 110.914 253.632 113.164 251.719 115.152C250.707 116.202 249.619 117.102 248.494 117.927C247.932 118.302 247.332 118.677 246.769 119.014C246.207 119.352 245.607 119.614 245.007 119.914C244.707 120.064 244.444 120.214 244.144 120.327C243.844 120.439 243.544 120.552 243.244 120.664C242.944 120.777 242.682 120.889 242.382 120.964C242.232 121.002 242.082 121.077 241.969 121.114C241.819 121.152 241.669 121.189 241.519 121.227C240.357 121.527 239.269 121.789 238.219 121.902C236.119 122.164 234.244 122.052 232.707 121.789C231.169 121.527 230.007 121.077 229.219 120.664C228.357 120.064 228.544 118.564 229.519 118.414Z" fill="black"/>
<path d="M151.069 125.239C152.381 126.027 154.369 127.564 157.069 128.952C157.744 129.327 158.494 129.589 159.244 129.927C159.619 130.077 160.031 130.227 160.444 130.377C160.631 130.452 160.856 130.527 161.044 130.602C161.269 130.677 161.456 130.714 161.681 130.789C162.094 130.902 162.544 131.052 162.994 131.127C163.444 131.202 163.894 131.314 164.344 131.427C164.794 131.502 165.281 131.577 165.731 131.652C165.956 131.689 166.219 131.727 166.444 131.727C166.669 131.764 166.931 131.764 167.156 131.802C169.069 131.914 170.906 131.877 172.669 131.614C173.119 131.539 173.531 131.464 173.944 131.389C174.169 131.352 174.356 131.314 174.581 131.277C174.769 131.239 174.994 131.164 175.181 131.127C175.594 131.014 175.969 130.939 176.344 130.827C176.719 130.714 177.094 130.602 177.431 130.489C177.806 130.414 178.144 130.264 178.481 130.114C178.819 130.002 179.156 129.889 179.456 129.777C180.056 129.477 180.656 129.252 181.219 129.027C181.744 128.764 182.231 128.539 182.719 128.352C183.169 128.127 183.581 127.939 183.919 127.789C184.819 127.414 186.019 128.539 185.494 129.514C185.269 129.889 185.044 130.339 184.706 130.789C184.331 131.239 183.919 131.727 183.431 132.252C182.906 132.739 182.344 133.227 181.706 133.752C181.369 133.977 181.031 134.239 180.656 134.464C180.281 134.727 179.906 134.952 179.494 135.177C179.081 135.402 178.669 135.627 178.219 135.852C177.769 136.077 177.319 136.227 176.831 136.452C176.606 136.564 176.344 136.639 176.119 136.752C175.856 136.827 175.631 136.902 175.369 136.977C174.844 137.127 174.319 137.314 173.794 137.427C171.619 137.952 169.219 138.139 166.781 137.952C166.444 137.914 166.144 137.877 165.844 137.877C165.544 137.839 165.206 137.802 164.906 137.764C164.306 137.652 163.669 137.539 163.069 137.427C162.469 137.277 161.906 137.089 161.344 136.939C160.781 136.789 160.256 136.527 159.694 136.339C159.431 136.227 159.169 136.152 158.906 136.002C158.644 135.889 158.419 135.739 158.156 135.627C157.669 135.364 157.181 135.139 156.731 134.877C155.831 134.314 155.006 133.789 154.256 133.152C152.794 131.952 151.669 130.677 150.919 129.552C150.131 128.427 149.681 127.377 149.456 126.589C149.119 125.727 150.281 124.789 151.069 125.239Z" fill="black"/>
<path d="M256.745 99.0268C258.02 98.5768 259.783 97.9768 261.808 97.0768C263.833 96.1393 266.083 94.9018 268.333 93.1018C268.895 92.6518 269.458 92.2018 269.983 91.6768C270.133 91.5643 270.245 91.4143 270.395 91.3018C270.508 91.1518 270.658 91.0393 270.808 90.8893C271.07 90.6268 271.333 90.3268 271.595 90.0643C272.645 88.9018 273.62 87.5893 274.52 86.2018C275.42 84.7768 276.17 83.2393 276.845 81.5893C276.995 81.1768 277.183 80.7643 277.295 80.3518C277.445 79.9393 277.558 79.4893 277.708 79.0768C277.82 78.6268 277.933 78.2143 278.045 77.7643C278.158 77.3143 278.233 76.8643 278.308 76.4143C278.608 74.6518 278.758 72.8518 278.758 71.1268C278.72 69.4018 278.495 67.7143 278.158 66.1018C277.483 62.8768 276.208 59.9893 274.745 57.5893C273.283 55.1518 271.633 53.1643 270.058 51.5893C268.483 50.0143 267.058 48.8518 265.97 47.9893C264.62 46.9018 265.22 45.4018 267.133 45.9643C268.595 46.4143 270.508 47.2393 272.608 48.6643C274.708 50.0893 276.958 52.1143 279.02 54.7768C281.045 57.4768 282.845 60.8518 283.895 64.7518C284.42 66.7018 284.758 68.8018 284.87 70.9393C284.945 73.0768 284.795 75.2893 284.42 77.5018C283.633 82.0768 281.72 86.2018 279.358 89.5768C278.158 91.2643 276.808 92.7643 275.458 94.0768C274.745 94.7143 274.07 95.3143 273.32 95.8768C272.608 96.4393 271.858 96.9268 271.145 97.3768C268.258 99.1768 265.37 100.189 262.97 100.752C260.533 101.277 258.545 101.352 257.12 101.202C255.545 101.014 255.283 99.5143 256.745 99.0268Z" fill="black"/>
<path d="M51.733 112.302C53.0455 114.064 54.9955 117.289 58.333 120.514C58.7455 120.927 59.1955 121.302 59.6455 121.714C60.0955 122.127 60.583 122.502 61.0705 122.877C62.083 123.627 63.133 124.414 64.2955 125.089C65.458 125.764 66.6955 126.402 68.008 126.964C69.3205 127.527 70.708 128.014 72.133 128.389C74.9455 129.177 77.7955 129.477 80.458 129.514C81.808 129.514 83.083 129.439 84.3205 129.289C85.558 129.139 86.758 128.952 87.8455 128.689C90.0955 128.202 92.0455 127.527 93.6955 126.852C95.3455 126.214 96.6955 125.539 97.7455 125.089C99.0205 124.527 100.108 125.727 99.133 127.002C98.3455 127.939 97.183 129.139 95.533 130.339C93.883 131.539 91.783 132.702 89.233 133.639C86.7205 134.577 83.758 135.252 80.5705 135.439C77.383 135.627 73.933 135.327 70.483 134.389C68.7205 133.902 66.9955 133.264 65.4205 132.552C63.8455 131.802 62.3455 130.939 60.9955 130.002C58.2955 128.127 56.1205 125.952 54.433 123.814C52.783 121.677 51.658 119.539 50.908 117.702C50.158 115.864 49.8205 114.289 49.708 113.127C49.633 111.889 51.0205 111.289 51.733 112.302Z" fill="black"/>
<path d="M263.495 52.7142C262.858 50.6517 262.108 47.0142 260.045 42.9267C259.558 41.9142 258.958 40.8642 258.283 39.8142C257.608 38.7642 256.858 37.7142 256.033 36.6642C255.17 35.6142 254.27 34.5642 253.258 33.5892C252.995 33.3267 252.733 33.1017 252.47 32.8767C252.208 32.6517 251.945 32.3892 251.683 32.1642C251.158 31.7142 250.558 31.3017 249.995 30.8517C247.708 29.2017 245.195 28.0017 242.72 27.1392C240.245 26.2767 237.808 25.7892 235.558 25.5267C234.995 25.4892 234.433 25.3767 233.908 25.3392C233.383 25.3017 232.858 25.2642 232.333 25.2267C231.808 25.2267 231.32 25.1892 230.833 25.1892C230.345 25.1517 229.895 25.1892 229.445 25.1892C228.995 25.1892 228.583 25.1892 228.17 25.1892C227.758 25.2267 227.383 25.2267 227.008 25.2267C226.633 25.2267 226.295 25.2267 225.958 25.2642C225.62 25.2642 225.32 25.3017 225.058 25.3017C223.633 25.3017 223.145 23.7642 224.533 23.0142C224.795 22.8642 225.095 22.7142 225.395 22.5642C225.733 22.4142 226.07 22.2642 226.445 22.1142C226.82 21.9642 227.233 21.8142 227.645 21.6642C228.095 21.5517 228.545 21.4017 228.995 21.2892C230.908 20.8017 233.233 20.3892 235.858 20.3517C238.483 20.3142 241.445 20.6142 244.483 21.4392C247.52 22.3017 250.67 23.6892 253.558 25.7517C254.27 26.3142 255.02 26.8767 255.695 27.4392C256.033 27.7392 256.333 28.0392 256.67 28.3392C257.008 28.6392 257.308 28.9392 257.608 29.2767C258.808 30.5142 259.82 31.8267 260.758 33.1392C261.695 34.4517 262.445 35.8017 263.12 37.1142C263.758 38.4642 264.32 39.7392 264.733 41.0517C265.558 43.6017 265.933 45.9267 266.008 47.9142C266.083 49.8642 265.895 51.4392 265.633 52.5267C265.37 53.8017 263.87 53.9517 263.495 52.7142Z" fill="black"/>
<path d="M159.432 115.527C159.432 115.527 156.507 140.689 162.244 150.627C137.607 136.602 139.294 118.489 139.294 118.489L159.432 115.527Z" fill="white"/>
<path d="M139.894 119.127C140.194 120.589 140.719 123.177 141.919 126.289C143.119 129.402 145.069 132.964 147.806 136.414C150.469 139.827 153.431 142.602 156.019 144.777C158.606 146.952 160.744 148.602 161.944 149.652C162.694 150.327 162.244 151.114 161.231 150.777C159.656 150.252 157.144 149.014 154.219 147.064C151.294 145.077 147.956 142.264 145.069 138.589C142.069 134.764 140.081 130.639 139.219 127.114C138.281 123.589 138.356 120.702 138.694 119.164C138.806 118.752 139.069 118.489 139.331 118.489C139.556 118.527 139.819 118.714 139.894 119.127Z" fill="black"/>
<path d="M161.42 150.477C161.308 150.327 161.195 150.177 161.045 150.027C160.933 149.839 160.783 149.652 160.67 149.464C160.408 149.052 160.145 148.602 159.883 148.039C159.358 146.952 158.87 145.639 158.458 144.139C157.633 141.139 157.108 137.389 156.958 133.339C156.695 125.427 157.783 118.714 158.683 116.052C158.983 115.189 159.883 115.339 159.995 116.239C160.37 119.052 160.22 125.614 160.483 133.189C160.633 137.127 160.895 140.689 161.27 143.577C161.458 145.002 161.683 146.239 161.908 147.289C162.02 147.814 162.133 148.302 162.208 148.714C162.245 148.939 162.283 149.127 162.32 149.314C162.358 149.502 162.395 149.652 162.433 149.802C162.658 150.552 161.983 151.114 161.42 150.477Z" fill="black"/>
<path d="M51.9775 70.1742L52.0255 67.6542C51.8095 67.6782 51.6895 67.6782 51.5455 67.6782C50.0095 67.6782 47.0575 67.3182 45.1375 66.8622C43.3615 66.4782 42.0415 66.0462 41.1535 65.6142L39.5935 70.0302C39.9295 70.1502 39.9295 70.1502 40.2655 70.2462C40.7215 70.3902 40.9855 70.4862 41.3695 70.5822C42.6175 70.9662 44.0335 71.2782 45.1135 71.4462C43.5295 72.7902 42.6895 74.2542 42.6895 75.6942C42.6895 77.0142 43.0975 77.7342 44.8975 79.7022C46.3615 81.2862 46.6015 81.6462 46.6015 82.2222C46.6015 82.7502 46.1215 83.1822 45.5215 83.1822C44.5855 83.1822 42.9535 82.3902 41.6815 81.3102C41.4415 83.6862 41.3215 84.3822 40.7935 86.0862C41.8735 86.6622 42.4255 86.9742 42.4735 86.9982C43.7215 87.5742 45.1135 87.8862 46.3375 87.8862C49.5295 87.8862 51.9295 85.6542 51.9295 82.7262C51.9295 81.9822 51.7615 81.2382 51.4495 80.4942C51.1615 79.7742 50.7055 79.1502 49.7215 78.1182C47.9935 76.2942 47.8495 76.0782 47.8495 75.5022C47.8495 74.2062 49.8655 72.5982 51.9295 72.2622L51.9535 70.6062C52.4815 71.6622 52.9375 72.8622 53.1055 73.7022L55.6255 72.8622C55.3375 71.7102 54.7855 70.3902 54.2575 69.5502L51.9775 70.1742ZM58.6975 71.8542C58.4575 70.8462 57.9295 69.6702 57.2815 68.6142L54.8575 69.3582C55.5535 70.7022 55.8895 71.5662 56.2255 72.7422L58.6975 71.8542ZM37.5295 75.9582C37.1695 78.8382 36.0415 82.6782 34.8175 85.2222C36.7615 85.7742 37.5295 86.0622 39.4255 87.0462C39.7375 86.3982 39.9295 85.9422 40.1455 85.3182C40.8655 83.3262 41.7775 79.8942 42.0175 78.3582C42.1375 77.6862 42.1375 77.6862 42.2095 77.3502L37.5295 75.9582ZM50.8015 76.8222C52.2895 79.2942 53.6335 83.3262 54.1135 86.6142L58.7215 84.4302C58.1455 81.5742 56.7295 77.8542 55.2415 75.3102L50.8015 76.8222ZM62.3455 78.0222C63.2575 77.6622 63.7615 77.5182 65.4895 77.1342C68.1535 76.5342 70.0735 76.2702 71.6335 76.2702C73.8415 76.2702 74.9455 77.0142 74.9455 78.5262C74.9455 81.2622 71.2975 82.9422 65.3455 82.9422C66.3775 84.8622 66.6655 85.6062 67.0735 87.4542C67.4575 87.4062 67.4575 87.4062 68.2015 87.3102C70.3855 87.0702 71.1775 86.9262 72.6655 86.4702C77.1535 85.1022 79.6735 82.2462 79.6735 78.5022C79.6735 77.0142 79.2895 75.7182 78.5455 74.6382C77.2975 72.8142 75.2095 71.9742 72.0175 71.9742C70.0255 71.9742 67.8415 72.2382 64.3855 72.9102C62.3935 73.2942 62.3935 73.2942 61.4575 73.3662L62.3455 78.0222ZM83.819 73.2222C83.963 73.2222 84.059 73.2222 84.131 73.2222C84.347 73.2222 84.611 73.2222 84.947 73.2462C85.787 73.3182 87.131 73.3662 87.971 73.4142C87.395 75.4542 85.859 79.0062 84.947 80.3742L89.723 81.8622C90.131 81.2622 90.395 81.0462 91.115 80.6862C92.531 79.9662 93.995 79.6302 95.579 79.6302C97.667 79.6302 98.819 80.1342 98.819 81.0462C98.819 81.5982 98.435 82.1742 97.835 82.4862C96.923 82.9422 95.555 83.2062 94.043 83.2062C92.075 83.2062 89.843 82.8462 87.299 82.1022C87.707 84.1182 87.803 84.9102 87.827 86.9742C90.131 87.4782 91.883 87.6942 93.779 87.6942C100.187 87.6942 104.003 85.2462 104.003 81.0942C104.003 78.8622 102.851 77.0862 100.835 76.2222C99.731 75.7422 98.243 75.4782 96.515 75.4782C94.787 75.4782 93.155 75.7662 91.787 76.2942C92.099 75.6942 92.123 75.6222 92.843 73.4862C95.219 73.4382 98.147 73.2462 101.027 72.9822C102.011 72.8862 102.251 72.8622 102.947 72.8382L102.779 68.0142C102.083 68.2302 101.867 68.2542 101.171 68.3502C98.291 68.7342 96.467 68.8782 93.971 68.9742C94.331 67.5102 94.427 67.1262 94.571 66.6702C94.715 66.2622 94.715 66.2622 94.787 66.0222L89.555 65.6382C89.507 66.6462 89.411 67.3662 89.051 69.0462C86.315 68.9982 84.899 68.8782 83.867 68.6382L83.819 73.2222ZM110.243 71.0142C110.675 71.9502 110.963 72.7902 111.515 74.6142C109.211 75.3102 108.971 75.3822 108.227 75.5022L109.427 79.4622C110.315 79.0782 110.795 78.8862 112.523 78.3342C113.459 81.9102 113.459 81.9102 113.867 83.7582C114.515 86.7822 114.683 87.6462 114.707 88.4622L119.315 87.4542C119.003 86.6142 118.931 86.3502 118.619 85.1022C118.091 82.8702 117.611 81.0222 116.531 77.1342C118.811 76.5342 120.179 76.2702 121.307 76.2702C122.459 76.2702 123.083 76.7022 123.083 77.4702C123.083 78.4062 122.195 78.9342 120.635 78.9342C119.675 78.9342 119.171 78.8142 117.635 78.2862C118.211 79.9182 118.331 80.6142 118.475 82.5102C119.291 82.7022 120.131 82.7742 121.043 82.7742C122.699 82.7742 124.259 82.3422 125.363 81.5742C126.755 80.6382 127.451 79.1982 127.451 77.3742C127.451 75.4782 126.539 73.8462 125.099 73.1262C124.235 72.6702 123.275 72.4782 122.075 72.4782C122.027 72.4782 121.907 72.4782 121.787 72.4782C121.787 71.2542 121.835 70.4382 121.931 69.5742H117.635C117.683 69.9342 117.707 70.0302 117.707 70.5102C117.707 70.6542 117.731 71.0382 117.755 71.6142C117.779 72.1902 117.803 72.4542 117.803 73.0062C116.939 73.1742 116.435 73.2942 115.523 73.5102C114.779 70.8462 114.779 70.8462 114.635 69.9102L110.243 71.0142ZM138.515 75.1902C139.283 75.2142 139.835 75.2382 140.123 75.2622C140.915 75.3102 141.755 75.3342 142.667 75.3342C143.483 75.3342 144.083 75.3102 144.971 75.2622C144.971 75.5022 144.971 75.7422 144.971 75.8142C144.971 79.2222 144.515 80.8062 143.195 82.1742C142.187 83.1822 141.131 83.9022 139.547 84.5982C141.347 85.9182 142.019 86.5662 143.411 88.3422C145.715 86.9982 146.891 85.9662 147.947 84.4062C149.243 82.4142 149.699 80.3982 149.699 76.4622C149.699 75.8622 149.699 75.5982 149.675 74.8782C150.731 74.7582 151.187 74.6862 152.195 74.5182C152.555 74.4462 152.675 74.4462 152.987 74.3982L152.771 69.6702C152.003 69.9822 151.235 70.1742 149.555 70.4622C149.531 69.9822 149.531 69.5982 149.507 69.3582C149.507 68.7822 149.483 68.3502 149.483 68.2542C149.435 67.0782 149.435 67.0782 149.435 66.9102C149.435 66.6462 149.459 66.4302 149.507 65.9742L144.491 66.0222C144.707 67.1502 144.731 67.4382 144.803 69.4782C144.803 69.7902 144.827 70.2462 144.851 70.8702C143.843 70.8942 143.291 70.9182 142.715 70.9182C141.107 70.9182 139.835 70.8222 138.539 70.5822L138.515 75.1902ZM132.755 66.2862C132.755 66.9582 132.731 67.4142 132.611 68.2302C131.963 73.3902 131.867 74.4942 131.867 77.0622C131.867 79.6782 132.107 82.6542 132.539 85.0782C132.779 86.4942 132.779 86.4942 132.827 87.0702L137.411 86.9262C137.603 84.6222 139.043 80.8302 140.627 78.4542L137.483 76.8702C137.147 77.4702 136.739 78.3102 136.403 79.1742C136.451 77.9982 136.451 77.9982 136.499 75.9342C136.523 74.7342 136.691 73.1982 136.907 71.7342C137.291 69.4062 137.483 68.4462 137.987 66.6222L132.755 66.2862ZM159.683 69.2862C162.251 70.4622 166.955 71.8302 170.651 72.5022L172.139 67.9902C168.971 67.5822 163.931 66.2382 161.915 65.2542L159.683 69.2862ZM157.859 70.5582C157.835 71.2542 157.787 71.6622 157.715 72.1662C157.307 75.2142 156.923 78.2142 156.755 79.7022C156.659 80.5902 156.635 80.7102 156.563 81.1902L161.147 81.3822C161.651 80.8542 161.939 80.6142 162.659 80.2542C164.243 79.4382 165.899 79.0302 167.507 79.0302C169.379 79.0302 170.483 79.6542 170.483 80.6862C170.483 81.3582 170.099 81.9582 169.403 82.3422C168.419 82.8462 167.123 83.1342 165.659 83.1342C163.859 83.1342 161.555 82.7502 159.059 82.0542C159.539 83.7102 159.635 84.3822 159.779 87.0702C161.795 87.5022 163.787 87.7182 165.587 87.7182C168.635 87.7182 170.987 87.1182 172.859 85.8942C174.683 84.6702 175.763 82.6302 175.763 80.4462C175.763 78.6942 175.067 77.2542 173.747 76.2462C172.403 75.2382 170.555 74.6622 168.587 74.6622C166.163 74.6622 163.883 75.1902 161.891 76.1982C162.107 74.3742 162.395 72.6942 162.827 70.8462L157.859 70.5582ZM187.211 69.4302C187.307 67.6542 187.403 66.5502 187.523 65.9982L182.531 65.9022C182.603 66.5262 182.627 66.9102 182.627 67.5822C182.627 68.0862 182.627 68.2782 182.579 69.7902C181.595 69.8382 180.755 69.8622 180.107 69.8622C179.603 69.8622 179.315 69.8382 178.739 69.8142L178.955 74.2542C179.723 74.1342 180.059 74.1102 182.435 73.9422L182.387 75.9822C182.339 76.0302 181.499 76.8942 179.819 78.5742C179.171 79.2222 178.859 79.4862 178.091 80.1102L180.203 84.7902C180.371 84.5262 180.419 84.4542 180.683 84.1182C180.803 83.9982 180.923 83.8302 181.067 83.6382C181.763 82.7022 181.763 82.7022 182.291 82.0542C182.291 82.5102 182.291 82.7742 182.291 82.9422V85.2462C182.291 85.9662 182.219 86.8782 182.099 87.7182H187.187C187.019 86.2782 186.971 84.5022 186.971 80.9262C186.971 80.1822 186.971 79.4862 186.995 78.3582C188.075 77.0622 189.515 75.7902 190.979 74.7822C191.675 74.3022 192.323 74.0382 192.779 74.0382C193.163 74.0382 193.355 74.1822 193.355 74.5422C193.355 74.7822 193.259 75.3102 192.947 76.7022C191.963 81.3102 191.891 81.6942 191.891 83.2302C191.891 84.4542 192.179 85.2942 192.851 86.0142C193.619 86.8542 194.675 87.2862 195.971 87.2862C198.227 87.2862 200.027 86.0382 201.947 83.0622C200.603 80.9982 200.243 80.2782 199.691 78.5742C199.403 79.2462 198.827 80.2302 198.227 81.0702C197.747 81.7182 197.387 82.0542 197.147 82.0542C196.907 82.0542 196.787 81.9102 196.787 81.6462C196.787 81.1902 197.195 79.1502 197.747 76.6782C198.323 74.2302 198.419 73.6782 198.419 72.9102C198.419 71.7822 197.939 70.6542 197.195 69.9822C196.499 69.3342 195.443 68.9982 194.267 68.9982C192.947 68.9982 191.747 69.3822 190.235 70.2702C188.963 71.0382 188.003 71.7582 186.995 72.7422V72.1902C187.835 71.2782 188.075 71.0142 188.507 70.6782L187.211 69.4302ZM212.771 81.0942L210.179 82.8462C211.427 84.3342 212.243 85.5342 213.251 87.3822L215.459 85.7502C215.675 86.6382 215.771 87.0702 215.891 88.1262C217.355 88.1982 217.883 88.2222 218.483 88.2222C219.779 88.2222 220.691 88.1022 221.243 87.8622C222.275 87.4062 222.803 86.4942 222.803 85.1022V81.0942C224.099 81.0942 224.627 81.1182 225.371 81.2142V77.1102C224.651 77.1822 224.027 77.2062 222.803 77.2062V76.2702C224.267 76.2702 224.795 76.2942 225.371 76.3662V72.2622C224.507 72.3582 223.715 72.3822 222.539 72.3822H219.347V71.2302H221.699C223.067 71.2302 223.763 71.2542 224.363 71.3262V67.1982C223.547 67.2942 222.851 67.3422 221.627 67.3422H219.347V67.1742C219.347 66.5022 219.371 66.0462 219.467 65.4462H214.883C214.979 66.0942 215.003 66.5502 215.003 67.1502V67.3422H213.035C211.787 67.3422 211.043 67.2942 210.251 67.1982V67.3422L207.251 65.0382C206.435 66.3822 204.755 67.7502 202.427 68.9982C203.315 70.3902 203.771 71.3262 204.371 72.9822C205.619 72.1902 206.195 71.7822 207.131 71.0142C208.115 70.1982 209.219 69.1902 209.723 68.6142C210.035 68.2542 210.035 68.2542 210.251 68.0142V71.3262C210.875 71.2542 211.547 71.2302 212.867 71.2302H215.003V72.3822H212.363C211.139 72.3822 210.755 72.3582 209.987 72.2862V72.7662L207.443 70.8702C207.059 71.5902 206.675 72.1662 206.027 72.9822C204.899 74.3742 203.483 75.6702 202.283 76.4142C203.027 77.9262 203.363 78.8862 203.891 81.0222C204.275 80.7582 204.419 80.6382 204.731 80.3262V85.4142C204.731 86.8302 204.683 87.5982 204.587 88.3182H208.979C208.907 87.5982 208.883 86.9502 208.883 85.5342V75.9822C209.363 75.4062 209.627 75.0462 209.987 74.5182V76.3662C210.659 76.2942 211.139 76.2702 212.363 76.2702H218.603V77.2062H211.883C210.659 77.2062 210.275 77.1822 209.507 77.1102V81.2142C210.275 81.1182 211.043 81.0942 212.171 81.0942H212.771ZM218.603 81.0942V83.5662C218.603 84.0462 218.411 84.1662 217.715 84.1662C217.499 84.1662 217.307 84.1422 216.899 84.0942C216.227 83.0382 215.531 82.0782 214.715 81.0942H218.603ZM227.819 73.2222C227.963 73.2222 228.059 73.2222 228.131 73.2222C228.347 73.2222 228.611 73.2222 228.947 73.2462C229.787 73.3182 231.131 73.3662 231.971 73.4142C231.395 75.4542 229.859 79.0062 228.947 80.3742L233.723 81.8622C234.131 81.2622 234.395 81.0462 235.115 80.6862C236.531 79.9662 237.995 79.6302 239.579 79.6302C241.667 79.6302 242.819 80.1342 242.819 81.0462C242.819 81.5982 242.435 82.1742 241.835 82.4862C240.923 82.9422 239.555 83.2062 238.043 83.2062C236.075 83.2062 233.843 82.8462 231.299 82.1022C231.707 84.1182 231.803 84.9102 231.827 86.9742C234.131 87.4782 235.883 87.6942 237.779 87.6942C244.187 87.6942 248.003 85.2462 248.003 81.0942C248.003 78.8622 246.851 77.0862 244.835 76.2222C243.731 75.7422 242.243 75.4782 240.515 75.4782C238.787 75.4782 237.155 75.7662 235.787 76.2942C236.099 75.6942 236.123 75.6222 236.843 73.4862C239.219 73.4382 242.147 73.2462 245.027 72.9822C246.011 72.8862 246.251 72.8622 246.947 72.8382L246.779 68.0142C246.083 68.2302 245.867 68.2542 245.171 68.3502C242.291 68.7342 240.467 68.8782 237.971 68.9742C238.331 67.5102 238.427 67.1262 238.571 66.6702C238.715 66.2622 238.715 66.2622 238.787 66.0222L233.555 65.6382C233.507 66.6462 233.411 67.3662 233.051 69.0462C230.315 68.9982 228.899 68.8782 227.867 68.6382L227.819 73.2222Z" fill="black"/>
<path d="M75.4505 327.881H475V326.98H75.4505C75.2017 326.98 75 327.181 75 327.43C75 327.679 75.2017 327.881 75.4505 327.881Z" fill="#3F3D56"/>
<path d="M257.882 335.538C260.134 346.349 272.972 333.061 272.972 333.061L288.287 331.259C288.287 331.259 297.972 331.484 304.278 336.439C310.585 341.394 314.864 334.863 314.864 334.863C321.969 337.231 330.673 337.221 338.212 336.463C349.075 335.37 357.782 326.985 359.275 316.17C367.697 255.16 321.395 225.178 321.395 225.178L307.882 188.691C307.882 188.691 312.161 178.106 313.513 168.646C314.864 159.187 304.954 150.178 292.792 141.169C287.471 137.227 281.374 137.511 276.199 139.076C270.393 140.833 265.328 144.445 261.586 149.219C258.486 153.174 253.168 158.775 247.323 159.745C245.301 160.079 243.305 160.881 241.44 162.34C239.513 163.849 238.661 166.367 238.634 169.498C238.49 183.173 249.783 199.637 259.684 202.205C271.846 205.358 265.314 235.313 265.314 235.313C245.495 263.241 259.458 294.322 259.458 294.322L255.855 319.547C255.855 319.547 255.63 324.727 257.882 335.538L257.882 335.538V335.538Z" fill="#3F3D56"/>
<path d="M324.099 277.43L319.144 339.142C319.144 339.142 325.9 356.259 302.927 355.358C279.954 354.457 293.468 319.322 293.468 319.322L300.675 273.376" fill="#3F3D56"/>
<path d="M304.637 355.843C304.076 355.843 303.501 355.831 302.91 355.808C297.825 355.609 294.08 353.736 291.779 350.241C285.202 340.25 292.517 320.554 293.031 319.206L300.231 273.306C300.269 273.06 300.498 272.895 300.746 272.931C300.991 272.97 301.159 273.2 301.121 273.446L293.914 319.392C293.908 319.423 293.9 319.454 293.889 319.484C293.81 319.688 286.118 340.005 292.532 349.747C294.664 352.984 298.167 354.721 302.946 354.908C310.447 355.201 315.492 353.6 317.945 350.148C321.154 345.63 318.75 339.37 318.725 339.307C318.7 339.243 318.69 339.174 318.695 339.106L323.65 277.394C323.67 277.146 323.883 276.966 324.135 276.981C324.383 277.001 324.568 277.218 324.548 277.466L319.601 339.077C319.929 339.96 321.981 346.016 318.683 350.664C316.243 354.104 311.521 355.843 304.637 355.843V355.843Z" fill="#2F2E41"/>
<path d="M283.107 290.043C283.107 290.043 284.459 347.25 256.08 345.899C227.702 344.547 253.377 326.529 253.377 326.529L255.855 319.547" fill="#3F3D56"/>
<path d="M257.056 346.372C256.726 346.372 256.395 346.364 256.06 346.349C247.957 345.963 243.379 344.147 242.453 340.953C240.784 335.196 251.66 327.204 253.002 326.244L255.432 319.397C255.515 319.162 255.772 319.04 256.007 319.123C256.241 319.206 256.364 319.463 256.281 319.698L253.803 326.68C253.772 326.768 253.714 326.844 253.638 326.898C253.519 326.981 241.756 335.314 243.318 340.702C244.126 343.486 248.427 345.083 256.103 345.449C261.215 345.694 265.696 343.975 269.414 340.345C283.357 326.735 282.667 290.418 282.658 290.053C282.653 289.805 282.849 289.598 283.098 289.592C283.333 289.593 283.553 289.784 283.559 290.032C283.595 291.539 284.267 327.103 270.044 340.989C266.383 344.564 262.017 346.372 257.056 346.372V346.372Z" fill="#2F2E41"/>
<path d="M238.635 169.498C241.869 169.885 246.932 169.867 251.126 167.07C255.617 164.074 250.955 161.281 247.324 159.745C245.301 160.079 243.306 160.881 241.441 162.34C239.513 163.849 238.662 166.367 238.635 169.498Z" fill="#2F2E41"/>
<path d="M290.9 161.398C290.9 161.398 283.04 141.211 294.297 140.928C305.555 140.646 314.447 158.14 314.447 158.14C314.447 158.14 342.703 209.645 303.99 206.868C265.278 204.09 283.777 183.53 283.777 183.53C283.777 183.53 292.607 172.674 290.9 161.398H290.9V161.398V161.398V161.398Z" fill="#2F2E41"/>
<path d="M334.026 312.257C339.012 314.475 344.221 316.738 349.673 316.522C355.125 316.305 360.863 312.794 361.712 307.404C362.151 304.621 361.281 301.636 362.346 299.029C363.78 295.52 368.404 294.167 371.998 295.37C375.592 296.572 378.232 299.672 380.125 302.955C383.667 309.098 385.087 317.16 381.289 323.148C377.997 328.339 371.753 330.685 365.944 332.697C358.208 335.376 349.57 338.036 342.073 334.744C334.533 331.434 330.426 321.869 333.218 314.122" fill="#3F3D56"/>
<path d="M317.393 214.992C317.393 214.992 327.303 219.947 322.348 225.352C317.393 230.757 286.762 246.073 275.501 243.821C264.24 241.568 261.537 234.812 261.537 233.01C261.537 231.208 262.387 209.412 265.99 210.313C269.594 211.214 292.168 231.658 317.393 214.992Z" fill="#6949FF"/>
</svg>
