<svg width="300" viewBox="0 0 466 353" fill="none" xmlns="http://www.w3.org/2000/svg">
<path d="M281.85 72C281.85 59.925 274.237 49.6125 263.587 45.5625C260.062 32.4375 248.1 22.7625 233.887 22.7625C232.612 22.7625 231.337 22.8375 230.1 22.9875C225.975 16.6125 218.812 12.375 210.675 12.375C205.762 12.375 201.187 13.9125 197.437 16.5375C191.137 9.6375 182.062 5.2875 171.975 5.2875C164.025 5.2875 156.712 7.9875 150.9 12.4875C143.25 6.5625 133.612 3 123.187 3C108.825 3 96.0375 9.675 87.75 20.1C82.8375 17.3625 77.175 15.825 71.1375 15.825C57.3 15.825 45.3375 24 39.9 35.775C39.075 35.7 38.2875 35.6625 37.4625 35.6625C18.45 35.6625 3 51.075 3 70.125C3 84.3375 11.625 96.5625 23.925 101.812C26.5875 111.675 35.5875 118.913 46.275 118.913C48.75 118.913 51.1125 118.538 53.3625 117.788C58.7625 126.638 68.5125 132.525 79.6125 132.525C87.3 132.525 94.3125 129.712 99.7125 125.062C106.725 129.525 115.05 132.113 123.975 132.113C133.35 132.113 142.05 129.263 149.287 124.388C153.412 130.8 160.575 135.038 168.75 135.038C175.462 135.038 181.462 132.188 185.7 127.65C189.937 129.113 194.475 129.863 199.2 129.863C210.075 129.863 219.937 125.738 227.4 118.95C229.237 119.438 231.187 119.663 233.175 119.663C244.762 119.663 254.325 111.15 256.05 100.088C270.487 98.925 281.85 86.8125 281.85 72Z" fill="white"/>
<path d="M37.8571 36.9641C36.9196 37.1141 35.7946 37.2641 34.5196 37.5266C33.2446 37.7516 31.8571 38.0891 30.3196 38.5391C27.2821 39.4391 23.8321 40.9016 20.4571 43.2641C19.5946 43.8266 18.7696 44.5016 17.9446 45.2141C17.0821 45.8891 16.3321 46.6766 15.5071 47.4641C13.9696 49.1141 12.4696 50.9141 11.1946 52.9766C9.9196 55.0391 8.8321 57.2891 7.9696 59.6891C7.1071 62.0891 6.5821 64.6766 6.2821 67.3391C5.7196 72.5516 6.5446 77.6891 8.2321 82.1141C9.9571 86.5391 12.5071 90.3266 15.3571 93.2516C16.7446 94.7516 18.2446 95.9891 19.7071 97.1141C20.4571 97.6391 21.1696 98.1641 21.8821 98.6141C22.6321 99.0266 23.3071 99.5141 24.0196 99.8891C24.7321 100.264 25.4071 100.602 26.0446 100.939C26.7196 101.239 27.3196 101.502 27.9196 101.764C28.5196 102.027 29.0821 102.214 29.6446 102.439C29.9071 102.552 30.1696 102.664 30.4321 102.739C30.6946 102.814 30.9196 102.889 31.1446 102.964C33.4696 103.752 33.3196 105.364 30.5446 105.214C28.4071 105.064 25.5196 104.614 22.2196 103.302C18.9196 102.027 15.2071 99.9266 11.7196 96.7766C10.8196 96.0266 9.9946 95.1266 9.1321 94.2266C8.7196 93.7766 8.3071 93.2891 7.9321 92.8016C7.5196 92.3141 7.1071 91.8266 6.7696 91.2641C6.3946 90.7391 6.0196 90.1766 5.6446 89.6516C5.3071 89.0891 4.9696 88.4891 4.6321 87.9266C4.2571 87.3641 3.9571 86.7266 3.6571 86.1266C3.3571 85.4891 3.0196 84.8891 2.7946 84.2141C2.5321 83.5391 2.2696 82.9016 2.0071 82.2266C1.7821 81.5516 1.5946 80.8391 1.3696 80.1641C1.1446 79.4891 0.994602 78.7391 0.844602 78.0266C0.694602 77.3141 0.507102 76.6016 0.432102 75.8516C-0.0553976 72.8891 -0.130398 69.8141 0.207102 66.7391C0.544602 63.5141 1.2571 60.4016 2.3071 57.5516C3.3946 54.6641 4.8196 52.0391 6.4321 49.6391C6.8446 49.0391 7.2571 48.4766 7.6696 47.9141C8.1196 47.3516 8.5696 46.8266 9.0196 46.3016C9.4696 45.7766 9.9571 45.2891 10.4071 44.8016C10.6321 44.5766 10.8946 44.3141 11.1196 44.0891L11.4571 43.7516L11.8321 43.4141C12.3196 42.9641 12.8446 42.5516 13.3321 42.1391C13.8196 41.7266 14.3446 41.3516 14.8696 40.9766C15.3946 40.6016 15.8821 40.2266 16.4071 39.9266C16.9321 39.5891 17.4196 39.2891 17.9446 38.9891C22.0696 36.6266 26.1571 35.4266 29.6071 34.9391C31.3321 34.6766 32.9071 34.6016 34.2571 34.6016C35.6446 34.6016 36.8071 34.7516 37.7821 34.9016C39.8821 35.1641 40.0321 36.7016 37.8571 36.9641Z" fill="black"/>
<path d="M93.3567 25.5643C92.7192 25.1893 92.0442 24.6643 91.1817 24.1768C90.7692 23.9143 90.3192 23.6518 89.8317 23.3893C89.3442 23.1268 88.8192 22.8643 88.2942 22.6018C86.1192 21.5518 83.5317 20.4268 80.4567 19.7143C77.3817 19.0018 73.8942 18.6268 70.1817 18.8518C66.4692 19.0768 62.5692 19.9393 58.8192 21.5143L58.1067 21.7768C57.8817 21.8893 57.6567 22.0018 57.4317 22.1143C56.9817 22.3393 56.5692 22.5268 56.1192 22.7518C55.6692 22.9393 55.2942 23.2393 54.8817 23.4643C54.4692 23.7268 54.0567 23.9518 53.6817 24.2518C52.8942 24.8143 52.1067 25.3393 51.3567 25.9393C50.6067 26.5018 49.9317 27.1393 49.2192 27.7393C46.5192 30.2143 44.4192 32.9518 42.8067 35.6518C41.1942 38.3143 40.1067 40.9393 39.3567 43.2643C38.6067 45.5518 38.1567 47.5393 37.8567 49.0393C37.4442 50.8768 35.8317 50.9518 35.5317 48.8518C35.3817 48.0268 35.3817 47.0893 35.3442 45.9643C35.3067 45.4018 35.3817 44.8393 35.4192 44.2018C35.4567 43.9018 35.4567 43.5643 35.4942 43.2643C35.5317 42.9268 35.5692 42.6268 35.6442 42.2893C36.0192 39.5893 36.8442 36.4393 38.4192 33.1768C38.6067 32.7643 38.8317 32.3518 39.0192 31.9393C39.2442 31.5268 39.4692 31.1143 39.6942 30.7018C39.9192 30.2893 40.1817 29.8768 40.4442 29.4643C40.7067 29.0518 41.0067 28.6393 41.2692 28.2268C41.4192 28.0393 41.5692 27.8143 41.6817 27.5893C41.8317 27.4018 41.9817 27.1768 42.1317 26.9893C42.4317 26.5768 42.7692 26.2018 43.0692 25.7893C43.4067 25.3768 43.7442 25.0018 44.1192 24.6268C44.4567 24.2518 44.8317 23.8393 45.2067 23.4643C45.5817 23.0893 45.9942 22.7143 46.3692 22.3393C46.7442 21.9643 47.1942 21.6268 47.6067 21.2518C48.4317 20.5018 49.3317 19.8643 50.2692 19.1893C50.7192 18.8518 51.2442 18.5518 51.7317 18.2518C52.2192 17.9518 52.7067 17.6143 53.2317 17.3518C53.7567 17.0893 54.2817 16.8268 54.8067 16.5643C55.0692 16.4518 55.3317 16.3018 55.5942 16.1893L56.4192 15.8518C60.9942 13.9393 65.7192 13.0768 70.1067 13.0018C74.4942 12.9643 78.5817 13.7518 81.9942 14.9518C85.4442 16.1518 88.2192 17.8393 90.3567 19.4518C90.8817 19.8643 91.3692 20.2768 91.8567 20.6518C92.3067 21.0643 92.6817 21.4768 93.0567 21.8518C93.4317 22.2268 93.7692 22.5643 94.0692 22.9393C94.3317 23.3143 94.5942 23.6518 94.8192 23.9518C95.7567 25.3018 94.8192 26.4643 93.3567 25.5643Z" fill="black"/>
<path d="M201.095 23.6516C199.332 21.7016 196.482 18.1766 191.907 14.9891C191.345 14.5766 190.745 14.2016 190.107 13.8266C189.807 13.6391 189.47 13.4516 189.17 13.2641C188.832 13.0766 188.532 12.8891 188.195 12.7016C186.845 11.9891 185.42 11.3141 183.882 10.7516C182.345 10.1891 180.732 9.70157 179.045 9.32657C177.357 8.95157 175.595 8.72657 173.832 8.61407C170.307 8.38907 166.895 8.76407 163.782 9.51407C160.67 10.3016 157.82 11.4266 155.382 12.7016C150.47 15.2891 147.17 18.3641 145.145 20.1641C143.907 21.2891 142.52 20.4266 143.345 18.7016C143.982 17.3891 144.995 15.7016 146.57 13.8641C148.107 12.0266 150.207 10.0766 152.832 8.27657C155.457 6.47657 158.645 4.86407 162.282 3.77657C165.92 2.68907 170.007 2.12657 174.207 2.42657C176.382 2.57657 178.52 2.91407 180.507 3.40157C182.532 3.92657 184.445 4.60157 186.207 5.35157C189.77 6.92657 192.77 8.98907 195.17 11.1266C197.57 13.2641 199.332 15.5141 200.57 17.5016C201.807 19.4891 202.557 21.2516 202.932 22.5641C203.345 23.9516 202.07 24.8141 201.095 23.6516Z" fill="black"/>
<path d="M148.97 12.5892C147.77 12.1017 146.157 11.3517 144.207 10.4892C142.257 9.62668 139.932 8.68918 137.307 7.93918C135.995 7.56418 134.607 7.18918 133.145 6.92668C132.77 6.85168 132.432 6.81418 132.057 6.73918C131.682 6.66418 131.307 6.66418 130.895 6.58918C130.107 6.51418 129.32 6.36418 128.532 6.32668C125.27 6.02668 121.82 6.10168 118.257 6.51418C114.77 6.92668 111.432 7.71418 108.395 8.72668C105.357 9.70168 102.62 11.0142 100.257 12.3267C95.4575 14.9517 92.0825 17.8017 89.9825 19.4142C88.6325 20.3892 87.395 19.4142 88.295 17.8017C88.4825 17.5017 88.67 17.1642 88.895 16.8267C89.0075 16.6392 89.12 16.4517 89.2325 16.3017C89.345 16.1142 89.495 15.9267 89.645 15.7392C89.945 15.3642 90.245 14.9892 90.545 14.5767C90.8825 14.1642 91.22 13.7142 91.595 13.3017C92.0075 12.8892 92.42 12.4392 92.8325 11.9892C93.0575 11.7642 93.2825 11.5392 93.5075 11.3142C93.7325 11.0892 93.995 10.8642 94.2575 10.6392C94.7825 10.1892 95.3075 9.73918 95.8325 9.25168C96.395 8.80168 96.995 8.38918 97.6325 7.93918C100.107 6.17668 103.07 4.45168 106.445 3.13918C109.82 1.82668 113.57 0.814182 117.545 0.326682C121.67 -0.160818 125.682 -0.0858184 129.32 0.439182C130.22 0.551682 131.12 0.776682 132.02 0.926682C132.882 1.07668 133.782 1.30168 134.607 1.52668C136.257 2.01418 137.795 2.57668 139.22 3.21418C142.032 4.45168 144.357 5.91418 146.157 7.22668C147.957 8.57668 149.307 9.81418 150.17 10.7517C151.07 11.8392 150.357 13.1517 148.97 12.5892Z" fill="black"/>
<path d="M94.8569 120.252C95.1194 120.402 95.4194 120.552 95.7194 120.739C96.0194 120.927 96.3569 121.114 96.7319 121.302C97.4444 121.714 98.2694 122.164 99.1319 122.652C100.932 123.589 103.032 124.677 105.507 125.614C107.982 126.552 110.757 127.414 113.832 128.014C116.907 128.614 120.207 128.952 123.657 128.952C127.032 128.914 130.294 128.577 133.332 128.014C136.369 127.414 139.144 126.589 141.582 125.689C144.057 124.789 146.194 123.777 147.994 122.877C148.894 122.389 149.719 121.977 150.432 121.564C150.807 121.377 151.144 121.189 151.482 121.002C151.819 120.814 152.119 120.664 152.382 120.514C153.807 119.764 154.894 120.964 153.807 122.352C152.982 123.439 151.707 124.752 150.019 126.177C148.294 127.564 146.119 129.064 143.532 130.377C140.944 131.727 137.907 132.889 134.532 133.752C131.157 134.577 127.482 135.102 123.619 135.102C119.644 135.102 115.819 134.614 112.369 133.714C108.919 132.814 105.844 131.539 103.219 130.114C100.632 128.689 98.4944 127.114 96.8819 125.689C96.0944 124.939 95.3819 124.264 94.8194 123.589C94.5194 123.252 94.2569 122.952 94.0319 122.652C93.8069 122.352 93.6194 122.052 93.4319 121.789C92.6819 120.739 93.6194 119.539 94.8569 120.252Z" fill="black"/>
<path d="M180.507 124.339C180.769 124.377 181.032 124.452 181.332 124.527C181.632 124.602 181.969 124.677 182.307 124.752C182.982 124.939 183.769 125.127 184.594 125.314C186.282 125.689 188.269 126.139 190.519 126.402C192.769 126.702 195.244 126.889 197.907 126.852C200.569 126.814 203.382 126.514 206.269 125.989C209.119 125.427 211.782 124.677 214.257 123.739C216.694 122.802 218.944 121.752 220.894 120.702C222.844 119.614 224.569 118.527 225.994 117.589C227.457 116.577 228.619 115.752 229.519 115.152C230.682 114.402 231.919 115.414 231.207 116.764C230.682 117.814 229.782 119.089 228.507 120.552C227.232 121.977 225.619 123.552 223.594 125.052C221.569 126.552 219.169 128.014 216.432 129.252C213.694 130.452 210.657 131.464 207.394 132.102C204.019 132.739 200.719 132.964 197.644 132.777C194.569 132.627 191.757 132.102 189.319 131.389C186.882 130.677 184.819 129.777 183.169 128.877C182.344 128.389 181.632 127.977 181.032 127.527C180.732 127.302 180.432 127.114 180.207 126.889C179.944 126.664 179.719 126.477 179.532 126.289C178.707 125.464 179.307 124.077 180.507 124.339Z" fill="black"/>
<path d="M25.3698 103.077C26.3448 104.052 27.6198 105.814 29.4198 107.727C29.6448 107.952 29.9073 108.214 30.1323 108.439C30.3948 108.664 30.6198 108.927 30.8823 109.189C31.4448 109.677 31.9698 110.164 32.5698 110.652C33.7698 111.627 35.0823 112.564 36.5823 113.352C38.0448 114.139 39.5073 114.814 40.9323 115.302C42.3573 115.789 43.7448 116.164 45.0198 116.389C45.3573 116.464 45.6573 116.502 45.9573 116.539C46.2573 116.577 46.5573 116.652 46.8573 116.689C47.4573 116.764 47.9823 116.839 48.5073 116.914C49.0323 116.952 49.4823 117.027 49.9323 117.102C50.3823 117.139 50.7573 117.177 51.0948 117.252C51.9573 117.439 52.4073 118.977 51.5823 119.539C51.2823 119.764 50.8698 119.989 50.4198 120.214C49.9698 120.402 49.4448 120.627 48.8448 120.814C48.2448 121.002 47.6073 121.114 46.8948 121.264C46.1823 121.339 45.4323 121.452 44.6073 121.489C42.9573 121.564 41.1573 121.377 39.2823 120.964C37.4073 120.514 35.4573 119.764 33.5823 118.752C31.6323 117.702 29.9448 116.352 28.5573 114.927C27.8448 114.252 27.2448 113.464 26.6823 112.789C26.1573 112.039 25.6698 111.327 25.2573 110.614C23.6448 107.764 23.1948 105.214 23.3073 103.789C23.4198 103.039 24.8448 102.514 25.3698 103.077Z" fill="black"/>
<path d="M228.358 22.5641C228.058 22.4141 227.721 22.2266 227.346 22.0016C227.008 21.7766 226.558 21.5516 226.146 21.2891C225.283 20.7266 224.233 20.1641 223.108 19.5266C220.821 18.2891 217.933 17.0891 214.671 16.3391C211.483 15.6641 208.408 15.5516 205.896 15.7391C205.258 15.7391 204.658 15.8891 204.096 15.9266C203.496 15.9641 202.971 16.0766 202.483 16.1516C201.471 16.2641 200.646 16.4516 199.933 16.4891C199.071 16.5266 198.208 15.1766 198.846 14.4266C199.071 14.1266 199.408 13.8266 199.746 13.4891C199.821 13.4141 199.933 13.3016 200.046 13.2266C200.158 13.1516 200.271 13.0766 200.383 13.0016C200.608 12.8516 200.833 12.7016 201.096 12.5141C201.358 12.3641 201.621 12.1766 201.883 12.0266C202.183 11.8391 202.483 11.7266 202.783 11.5766C203.421 11.2766 204.133 10.9391 204.883 10.7516C207.921 9.77662 211.933 9.43912 216.021 10.3391C220.258 11.3141 223.783 13.3391 226.108 15.5141C227.271 16.6016 228.208 17.6891 228.808 18.6641C229.483 19.6391 229.821 20.5391 230.008 21.2141C230.196 21.9266 229.071 22.9016 228.358 22.5641Z" fill="black"/>
<path d="M229.519 118.414C231.207 118.077 234.019 117.889 237.282 116.839C238.107 116.614 238.932 116.202 239.794 115.902C240.019 115.827 240.207 115.714 240.432 115.602C240.657 115.489 240.844 115.377 241.069 115.264C241.294 115.152 241.519 115.039 241.707 114.964C241.932 114.852 242.119 114.702 242.344 114.589C242.569 114.477 242.757 114.327 242.982 114.214C243.207 114.102 243.432 113.952 243.619 113.802C244.032 113.502 244.444 113.202 244.894 112.902C245.307 112.564 245.682 112.227 246.094 111.889L246.394 111.627L246.694 111.327C246.882 111.139 247.069 110.952 247.257 110.764C248.757 109.227 249.994 107.577 251.007 105.852C251.269 105.439 251.457 104.989 251.682 104.577C251.794 104.352 251.907 104.164 252.019 103.939C252.094 103.714 252.207 103.527 252.282 103.302C252.469 102.889 252.657 102.477 252.807 102.064C252.957 101.652 253.107 101.239 253.219 100.827C253.369 100.414 253.444 100.039 253.557 99.6268C253.669 99.2518 253.782 98.8393 253.857 98.5018C253.969 97.7518 254.157 97.0393 254.269 96.4018C254.344 95.7268 254.457 95.1268 254.569 94.5643C254.644 94.0018 254.682 93.5143 254.757 93.1018C254.944 92.0143 256.519 91.6393 257.082 92.8018C257.269 93.2518 257.532 93.7768 257.719 94.3768C257.869 94.9768 258.057 95.6893 258.207 96.4768C258.319 97.2643 258.357 98.1268 258.432 99.0643C258.394 99.5143 258.394 100.002 258.357 100.489C258.319 100.977 258.319 101.502 258.207 102.027C258.132 102.552 258.019 103.077 257.944 103.639C257.832 104.202 257.682 104.727 257.532 105.289C257.457 105.552 257.382 105.852 257.269 106.152C257.194 106.414 257.044 106.714 256.969 106.977C256.744 107.539 256.519 108.102 256.257 108.664C255.169 110.914 253.632 113.164 251.719 115.152C250.707 116.202 249.619 117.102 248.494 117.927C247.932 118.302 247.332 118.677 246.769 119.014C246.207 119.352 245.607 119.614 245.007 119.914C244.707 120.064 244.444 120.214 244.144 120.327C243.844 120.439 243.544 120.552 243.244 120.664C242.944 120.777 242.682 120.889 242.382 120.964C242.232 121.002 242.082 121.077 241.969 121.114C241.819 121.152 241.669 121.189 241.519 121.227C240.357 121.527 239.269 121.789 238.219 121.902C236.119 122.164 234.244 122.052 232.707 121.789C231.169 121.527 230.007 121.077 229.219 120.664C228.357 120.064 228.544 118.564 229.519 118.414Z" fill="black"/>
<path d="M151.069 125.239C152.381 126.027 154.369 127.564 157.069 128.952C157.744 129.327 158.494 129.589 159.244 129.927C159.619 130.077 160.031 130.227 160.444 130.377C160.631 130.452 160.856 130.527 161.044 130.602C161.269 130.677 161.456 130.714 161.681 130.789C162.094 130.902 162.544 131.052 162.994 131.127C163.444 131.202 163.894 131.314 164.344 131.427C164.794 131.502 165.281 131.577 165.731 131.652C165.956 131.689 166.219 131.727 166.444 131.727C166.669 131.764 166.931 131.764 167.156 131.802C169.069 131.914 170.906 131.877 172.669 131.614C173.119 131.539 173.531 131.464 173.944 131.389C174.169 131.352 174.356 131.314 174.581 131.277C174.769 131.239 174.994 131.164 175.181 131.127C175.594 131.014 175.969 130.939 176.344 130.827C176.719 130.714 177.094 130.602 177.431 130.489C177.806 130.414 178.144 130.264 178.481 130.114C178.819 130.002 179.156 129.889 179.456 129.777C180.056 129.477 180.656 129.252 181.219 129.027C181.744 128.764 182.231 128.539 182.719 128.352C183.169 128.127 183.581 127.939 183.919 127.789C184.819 127.414 186.019 128.539 185.494 129.514C185.269 129.889 185.044 130.339 184.706 130.789C184.331 131.239 183.919 131.727 183.431 132.252C182.906 132.739 182.344 133.227 181.706 133.752C181.369 133.977 181.031 134.239 180.656 134.464C180.281 134.727 179.906 134.952 179.494 135.177C179.081 135.402 178.669 135.627 178.219 135.852C177.769 136.077 177.319 136.227 176.831 136.452C176.606 136.564 176.344 136.639 176.119 136.752C175.856 136.827 175.631 136.902 175.369 136.977C174.844 137.127 174.319 137.314 173.794 137.427C171.619 137.952 169.219 138.139 166.781 137.952C166.444 137.914 166.144 137.877 165.844 137.877C165.544 137.839 165.206 137.802 164.906 137.764C164.306 137.652 163.669 137.539 163.069 137.427C162.469 137.277 161.906 137.089 161.344 136.939C160.781 136.789 160.256 136.527 159.694 136.339C159.431 136.227 159.169 136.152 158.906 136.002C158.644 135.889 158.419 135.739 158.156 135.627C157.669 135.364 157.181 135.139 156.731 134.877C155.831 134.314 155.006 133.789 154.256 133.152C152.794 131.952 151.669 130.677 150.919 129.552C150.131 128.427 149.681 127.377 149.456 126.589C149.119 125.727 150.281 124.789 151.069 125.239Z" fill="black"/>
<path d="M256.745 99.0268C258.02 98.5768 259.783 97.9768 261.808 97.0768C263.833 96.1393 266.083 94.9018 268.333 93.1018C268.895 92.6518 269.458 92.2018 269.983 91.6768C270.133 91.5643 270.245 91.4143 270.395 91.3018C270.508 91.1518 270.658 91.0393 270.808 90.8893C271.07 90.6268 271.333 90.3268 271.595 90.0643C272.645 88.9018 273.62 87.5893 274.52 86.2018C275.42 84.7768 276.17 83.2393 276.845 81.5893C276.995 81.1768 277.183 80.7643 277.295 80.3518C277.445 79.9393 277.558 79.4893 277.708 79.0768C277.82 78.6268 277.933 78.2143 278.045 77.7643C278.158 77.3143 278.233 76.8643 278.308 76.4143C278.608 74.6518 278.758 72.8518 278.758 71.1268C278.72 69.4018 278.495 67.7143 278.158 66.1018C277.483 62.8768 276.208 59.9893 274.745 57.5893C273.283 55.1518 271.633 53.1643 270.058 51.5893C268.483 50.0143 267.058 48.8518 265.97 47.9893C264.62 46.9018 265.22 45.4018 267.133 45.9643C268.595 46.4143 270.508 47.2393 272.608 48.6643C274.708 50.0893 276.958 52.1143 279.02 54.7768C281.045 57.4768 282.845 60.8518 283.895 64.7518C284.42 66.7018 284.758 68.8018 284.87 70.9393C284.945 73.0768 284.795 75.2893 284.42 77.5018C283.633 82.0768 281.72 86.2018 279.358 89.5768C278.158 91.2643 276.808 92.7643 275.458 94.0768C274.745 94.7143 274.07 95.3143 273.32 95.8768C272.608 96.4393 271.858 96.9268 271.145 97.3768C268.258 99.1768 265.37 100.189 262.97 100.752C260.533 101.277 258.545 101.352 257.12 101.202C255.545 101.014 255.283 99.5143 256.745 99.0268Z" fill="black"/>
<path d="M51.733 112.302C53.0455 114.064 54.9955 117.289 58.333 120.514C58.7455 120.927 59.1955 121.302 59.6455 121.714C60.0955 122.127 60.583 122.502 61.0705 122.877C62.083 123.627 63.133 124.414 64.2955 125.089C65.458 125.764 66.6955 126.402 68.008 126.964C69.3205 127.527 70.708 128.014 72.133 128.389C74.9455 129.177 77.7955 129.477 80.458 129.514C81.808 129.514 83.083 129.439 84.3205 129.289C85.558 129.139 86.758 128.952 87.8455 128.689C90.0955 128.202 92.0455 127.527 93.6955 126.852C95.3455 126.214 96.6955 125.539 97.7455 125.089C99.0205 124.527 100.108 125.727 99.133 127.002C98.3455 127.939 97.183 129.139 95.533 130.339C93.883 131.539 91.783 132.702 89.233 133.639C86.7205 134.577 83.758 135.252 80.5705 135.439C77.383 135.627 73.933 135.327 70.483 134.389C68.7205 133.902 66.9955 133.264 65.4205 132.552C63.8455 131.802 62.3455 130.939 60.9955 130.002C58.2955 128.127 56.1205 125.952 54.433 123.814C52.783 121.677 51.658 119.539 50.908 117.702C50.158 115.864 49.8205 114.289 49.708 113.127C49.633 111.889 51.0205 111.289 51.733 112.302Z" fill="black"/>
<path d="M263.495 52.7142C262.858 50.6517 262.108 47.0142 260.045 42.9267C259.558 41.9142 258.958 40.8642 258.283 39.8142C257.608 38.7642 256.858 37.7142 256.033 36.6642C255.17 35.6142 254.27 34.5642 253.258 33.5892C252.995 33.3267 252.733 33.1017 252.47 32.8767C252.208 32.6517 251.945 32.3892 251.683 32.1642C251.158 31.7142 250.558 31.3017 249.995 30.8517C247.708 29.2017 245.195 28.0017 242.72 27.1392C240.245 26.2767 237.808 25.7892 235.558 25.5267C234.995 25.4892 234.433 25.3767 233.908 25.3392C233.383 25.3017 232.858 25.2642 232.333 25.2267C231.808 25.2267 231.32 25.1892 230.833 25.1892C230.345 25.1517 229.895 25.1892 229.445 25.1892C228.995 25.1892 228.583 25.1892 228.17 25.1892C227.758 25.2267 227.383 25.2267 227.008 25.2267C226.633 25.2267 226.295 25.2267 225.958 25.2642C225.62 25.2642 225.32 25.3017 225.058 25.3017C223.633 25.3017 223.145 23.7642 224.533 23.0142C224.795 22.8642 225.095 22.7142 225.395 22.5642C225.733 22.4142 226.07 22.2642 226.445 22.1142C226.82 21.9642 227.233 21.8142 227.645 21.6642C228.095 21.5517 228.545 21.4017 228.995 21.2892C230.908 20.8017 233.233 20.3892 235.858 20.3517C238.483 20.3142 241.445 20.6142 244.483 21.4392C247.52 22.3017 250.67 23.6892 253.558 25.7517C254.27 26.3142 255.02 26.8767 255.695 27.4392C256.033 27.7392 256.333 28.0392 256.67 28.3392C257.008 28.6392 257.308 28.9392 257.608 29.2767C258.808 30.5142 259.82 31.8267 260.758 33.1392C261.695 34.4517 262.445 35.8017 263.12 37.1142C263.758 38.4642 264.32 39.7392 264.733 41.0517C265.558 43.6017 265.933 45.9267 266.008 47.9142C266.083 49.8642 265.895 51.4392 265.633 52.5267C265.37 53.8017 263.87 53.9517 263.495 52.7142Z" fill="black"/>
<path d="M159.432 115.527C159.432 115.527 156.507 140.689 162.244 150.627C137.607 136.602 139.294 118.489 139.294 118.489L159.432 115.527Z" fill="white"/>
<path d="M139.894 119.127C140.194 120.589 140.719 123.177 141.919 126.289C143.119 129.402 145.069 132.964 147.806 136.414C150.469 139.827 153.431 142.602 156.019 144.777C158.606 146.952 160.744 148.602 161.944 149.652C162.694 150.327 162.244 151.114 161.231 150.777C159.656 150.252 157.144 149.014 154.219 147.064C151.294 145.077 147.956 142.264 145.069 138.589C142.069 134.764 140.081 130.639 139.219 127.114C138.281 123.589 138.356 120.702 138.694 119.164C138.806 118.752 139.069 118.489 139.331 118.489C139.556 118.527 139.819 118.714 139.894 119.127Z" fill="black"/>
<path d="M161.42 150.477C161.308 150.327 161.195 150.177 161.045 150.027C160.933 149.839 160.783 149.652 160.67 149.464C160.408 149.052 160.145 148.602 159.883 148.039C159.358 146.952 158.87 145.639 158.458 144.139C157.633 141.139 157.108 137.389 156.958 133.339C156.695 125.427 157.783 118.714 158.683 116.052C158.983 115.189 159.883 115.339 159.995 116.239C160.37 119.052 160.22 125.614 160.483 133.189C160.633 137.127 160.895 140.689 161.27 143.577C161.458 145.002 161.683 146.239 161.908 147.289C162.02 147.814 162.133 148.302 162.208 148.714C162.245 148.939 162.283 149.127 162.32 149.314C162.358 149.502 162.395 149.652 162.433 149.802C162.658 150.552 161.983 151.114 161.42 150.477Z" fill="black"/>
<path d="M61.9689 78.44C61.8729 77.688 61.8409 76.856 61.8409 75.672V74.424C62.2729 74.872 62.5129 75.032 62.9769 75.24C63.6329 75.544 64.3529 75.688 65.1049 75.688C66.4489 75.688 67.6809 75.208 68.5609 74.344C69.5049 73.384 70.0169 71.992 70.0169 70.296C70.0169 68.664 69.5849 67.384 68.7209 66.536C67.8729 65.688 66.6089 65.224 65.1209 65.224C64.3369 65.224 63.6009 65.352 62.9769 65.624C62.5289 65.8 62.2889 65.96 61.8409 66.376V65.56H58.0489C58.1449 66.44 58.1769 67.208 58.1769 68.296V75.672C58.1769 76.856 58.1289 77.72 58.0489 78.44H61.9689ZM64.0969 72.808C62.8169 72.808 61.8569 71.816 61.8569 70.472C61.8569 69.128 62.8169 68.072 64.0489 68.072C65.4569 68.072 66.2409 68.904 66.2409 70.392C66.2409 71.896 65.4409 72.808 64.0969 72.808ZM71.1114 62.008C71.2074 62.664 71.2394 63.368 71.2394 64.616V73.064C71.2394 74.36 71.2074 74.872 71.1114 75.672H75.0794C74.9834 74.76 74.9514 74.072 74.9514 73.064V64.616C74.9514 63.448 74.9834 62.712 75.0794 62.008H71.1114ZM87.0281 71.56C87.0121 71.368 87.0121 71.368 86.9961 70.984C86.9481 69.768 86.7881 68.952 86.4041 68.04C85.6681 66.216 83.8761 65.128 81.6201 65.128C78.3401 65.128 76.1641 67.32 76.1641 70.616C76.1641 72.552 76.9001 74.136 78.2601 75.112C79.1241 75.752 80.3881 76.104 81.7801 76.104C83.4121 76.104 84.7721 75.608 85.7321 74.664C86.1801 74.232 86.4361 73.848 86.8521 72.936L83.5081 72.04C83.3641 72.44 83.2521 72.632 82.9961 72.824C82.6761 73.096 82.1801 73.24 81.6361 73.24C81.0281 73.24 80.5641 73.048 80.2441 72.648C80.0041 72.36 79.9081 72.088 79.8281 71.56H87.0281ZM79.8601 69.32C79.9561 68.968 80.0361 68.824 80.1801 68.632C80.5161 68.216 81.0281 67.992 81.6361 67.992C82.5961 67.992 83.2041 68.456 83.3801 69.32H79.8601ZM94.7201 69.16C93.3921 69.192 92.1761 69.256 91.5841 69.336C90.6561 69.464 89.6961 69.752 89.1521 70.072C88.1761 70.632 87.7281 71.448 87.7281 72.616C87.7281 73.752 88.1601 74.648 88.9761 75.256C89.5841 75.704 90.5121 75.944 91.6001 75.944C92.4001 75.944 93.2001 75.784 93.7921 75.528C94.1281 75.368 94.3521 75.192 94.7201 74.776V75.672H98.4961C98.4161 74.904 98.3841 74.296 98.3841 73.24V68.904C98.3841 67.512 97.8881 66.536 96.8961 65.928C96.2241 65.528 94.9441 65.272 93.6321 65.272C91.9201 65.272 90.6721 65.56 89.7761 66.168C88.9921 66.68 88.6401 67.176 88.2561 68.28L91.8881 68.84C92.1601 68.056 92.5921 67.752 93.4401 67.752C94.2561 67.752 94.7201 68.104 94.7201 68.728V69.16ZM94.7201 71.96C94.7201 72.808 93.7761 73.544 92.6881 73.544C91.9521 73.544 91.5041 73.192 91.5041 72.6C91.5041 72.056 91.8561 71.736 92.7041 71.528C93.1361 71.416 93.6161 71.368 94.7201 71.336V71.96ZM99.6664 72.632C99.7464 73.16 99.8104 73.416 99.9224 73.688C100.178 74.296 100.562 74.76 101.138 75.144C101.89 75.64 103.314 75.96 104.866 75.96C105.938 75.96 106.946 75.8 107.842 75.48C108.242 75.336 108.642 75.08 108.994 74.744C109.538 74.2 109.842 73.4 109.842 72.488C109.842 70.808 108.946 69.864 106.898 69.384C106.578 69.304 105.074 68.984 104.898 68.936C104.21 68.808 104.114 68.776 103.89 68.648C103.682 68.536 103.602 68.424 103.602 68.28C103.602 67.88 104.002 67.64 104.674 67.64C105.49 67.64 105.794 67.896 105.826 68.568L109.506 68.2C109.234 67.192 108.978 66.76 108.418 66.264C107.618 65.576 106.434 65.24 104.786 65.24C103.794 65.24 102.866 65.4 102.05 65.688C101.618 65.848 101.218 66.104 100.866 66.456C100.338 66.968 100.066 67.656 100.066 68.504C100.066 69.192 100.258 69.848 100.61 70.344C101.01 70.888 101.714 71.304 102.658 71.528C103.122 71.64 104.13 71.848 104.706 71.944C105.65 72.104 105.714 72.12 105.954 72.264C106.162 72.36 106.242 72.52 106.242 72.76C106.242 73.208 105.826 73.448 105.026 73.448C104.002 73.448 103.506 73.064 103.442 72.232L99.6664 72.632ZM121.497 71.56C121.481 71.368 121.481 71.368 121.465 70.984C121.417 69.768 121.257 68.952 120.873 68.04C120.137 66.216 118.345 65.128 116.089 65.128C112.809 65.128 110.633 67.32 110.633 70.616C110.633 72.552 111.369 74.136 112.729 75.112C113.593 75.752 114.857 76.104 116.249 76.104C117.881 76.104 119.241 75.608 120.201 74.664C120.649 74.232 120.905 73.848 121.321 72.936L117.977 72.04C117.833 72.44 117.721 72.632 117.465 72.824C117.145 73.096 116.649 73.24 116.105 73.24C115.497 73.24 115.033 73.048 114.713 72.648C114.473 72.36 114.377 72.088 114.297 71.56H121.497ZM114.329 69.32C114.425 68.968 114.505 68.824 114.649 68.632C114.985 68.216 115.497 67.992 116.105 67.992C117.065 67.992 117.673 68.456 117.849 69.32H114.329ZM127.877 62.008C127.973 62.92 128.005 63.736 128.005 64.744V72.936C128.005 74.088 127.973 74.872 127.877 75.672H131.669V74.904C132.181 75.336 132.437 75.496 132.901 75.672C133.477 75.896 134.149 76.008 134.869 76.008C135.829 76.008 136.789 75.768 137.477 75.336C138.949 74.424 139.781 72.664 139.781 70.44C139.781 67.16 138.005 65.224 134.981 65.224C134.261 65.224 133.589 65.336 132.981 65.576C132.469 65.768 132.181 65.944 131.669 66.392V64.744C131.669 63.448 131.701 62.792 131.797 62.008H127.877ZM133.893 68.12C135.285 68.12 136.037 68.968 136.037 70.52C136.037 72.088 135.189 73.096 133.877 73.096C132.565 73.096 131.685 72.072 131.685 70.584C131.685 69.096 132.565 68.12 133.893 68.12ZM147.917 75.672H151.709C151.613 75 151.581 74.312 151.581 73.064V68.168C151.581 66.92 151.613 66.312 151.709 65.56H147.789C147.885 66.376 147.917 67.096 147.917 68.168V71.32C147.677 71.848 147.549 72.072 147.293 72.328C146.877 72.744 146.381 72.968 145.869 72.968C145.069 72.968 144.669 72.408 144.669 71.288V68.168C144.669 67.016 144.701 66.312 144.797 65.56H140.845C140.941 66.28 140.973 67.032 140.973 68.168V72.168C140.973 73.432 141.309 74.44 141.949 75.048C142.557 75.656 143.453 75.976 144.525 75.976C145.213 75.976 145.853 75.848 146.477 75.576C147.037 75.336 147.341 75.128 147.917 74.568V75.672ZM159.957 71.88C159.893 72.232 159.829 72.408 159.685 72.616C159.397 73 158.917 73.224 158.341 73.224C157.253 73.224 156.549 72.168 156.549 70.536C156.549 68.92 157.189 67.992 158.325 67.992C159.189 67.992 159.653 68.424 159.877 69.432L163.349 68.76C163.061 67.784 162.853 67.368 162.437 66.856C161.493 65.704 160.101 65.128 158.293 65.128C154.933 65.128 152.805 67.24 152.805 70.584C152.805 73.96 154.933 76.104 158.309 76.104C160.133 76.104 161.557 75.512 162.517 74.376C162.949 73.848 163.157 73.416 163.461 72.408L159.957 71.88ZM168.422 75.672C168.31 74.696 168.278 74.088 168.278 73.064V70.008C168.518 69.416 168.662 69.176 168.918 68.888C169.318 68.488 169.798 68.264 170.326 68.264C171.142 68.264 171.526 68.808 171.526 69.96V73.064C171.526 74.184 171.494 74.872 171.398 75.672H175.366C175.254 74.856 175.222 74.328 175.222 73.064L175.206 69.064C175.19 66.616 173.942 65.256 171.67 65.256C170.998 65.256 170.358 65.384 169.734 65.64C169.174 65.896 168.854 66.104 168.278 66.648V64.616C168.278 63.4 168.31 62.728 168.406 62.008H164.486C164.582 62.664 164.614 63.4 164.614 64.616V73.064C164.614 74.04 164.582 74.728 164.486 75.672H168.422ZM183.501 69.16C182.173 69.192 180.957 69.256 180.365 69.336C179.437 69.464 178.477 69.752 177.933 70.072C176.957 70.632 176.509 71.448 176.509 72.616C176.509 73.752 176.941 74.648 177.757 75.256C178.365 75.704 179.293 75.944 180.381 75.944C181.181 75.944 181.981 75.784 182.573 75.528C182.909 75.368 183.133 75.192 183.501 74.776V75.672H187.277C187.197 74.904 187.165 74.296 187.165 73.24V68.904C187.165 67.512 186.669 66.536 185.677 65.928C185.005 65.528 183.725 65.272 182.413 65.272C180.701 65.272 179.453 65.56 178.557 66.168C177.773 66.68 177.421 67.176 177.037 68.28L180.669 68.84C180.941 68.056 181.373 67.752 182.221 67.752C183.037 67.752 183.501 68.104 183.501 68.728V69.16ZM183.501 71.96C183.501 72.808 182.557 73.544 181.469 73.544C180.733 73.544 180.285 73.192 180.285 72.6C180.285 72.056 180.637 71.736 181.485 71.528C181.917 71.416 182.397 71.368 183.501 71.336V71.96ZM188.768 62.008C188.848 62.616 188.896 63.464 188.896 64.616V73.064C188.896 74.216 188.864 74.872 188.768 75.672H192.736C192.624 75 192.608 74.632 192.608 73.16V72.824L193.728 71.688L194.608 73.32C195.04 74.136 195.456 75.032 195.68 75.672H200.528C200.192 75.272 200.016 75.032 199.024 73.512L196.368 69.464L198.704 67.176C199.696 66.2 199.872 66.04 200.448 65.56H195.392C195.072 66.056 194.784 66.408 193.92 67.288L192.592 68.648V64.616C192.592 63.464 192.624 62.744 192.72 62.008H188.768ZM211.809 71.56C211.793 71.368 211.793 71.368 211.777 70.984C211.729 69.768 211.569 68.952 211.185 68.04C210.449 66.216 208.657 65.128 206.401 65.128C203.121 65.128 200.945 67.32 200.945 70.616C200.945 72.552 201.681 74.136 203.041 75.112C203.905 75.752 205.169 76.104 206.561 76.104C208.193 76.104 209.553 75.608 210.513 74.664C210.961 74.232 211.217 73.848 211.633 72.936L208.289 72.04C208.145 72.44 208.033 72.632 207.777 72.824C207.457 73.096 206.961 73.24 206.417 73.24C205.809 73.24 205.345 73.048 205.025 72.648C204.785 72.36 204.689 72.088 204.609 71.56H211.809ZM204.641 69.32C204.737 68.968 204.817 68.824 204.961 68.632C205.297 68.216 205.809 67.992 206.417 67.992C207.377 67.992 207.985 68.456 208.161 69.32H204.641ZM216.765 75.672V71.896H212.989V75.672H216.765ZM222.297 75.672V71.896H218.521V75.672H222.297ZM227.828 75.672V71.896H224.052V75.672H227.828Z" fill="black"/>
<path d="M66.4505 324.881H466V323.98H66.4505C66.2017 323.98 66 324.181 66 324.43C66 324.679 66.2017 324.881 66.4505 324.881Z" fill="#3F3D56"/>
<path d="M248.882 332.538C251.134 343.349 263.972 330.061 263.972 330.061L279.287 328.259C279.287 328.259 288.972 328.484 295.278 333.439C301.585 338.394 305.864 331.863 305.864 331.863C312.969 334.231 321.673 334.221 329.212 333.463C340.075 332.37 348.782 323.985 350.275 313.17C358.697 252.16 312.395 222.178 312.395 222.178L298.882 185.691C298.882 185.691 303.161 175.106 304.513 165.646C305.864 156.187 295.954 147.178 283.792 138.169C278.471 134.227 272.374 134.511 267.199 136.076C261.393 137.833 256.328 141.445 252.586 146.219C249.486 150.174 244.168 155.775 238.323 156.745C236.301 157.079 234.305 157.881 232.44 159.34C230.513 160.849 229.661 163.367 229.634 166.498C229.49 180.173 240.783 196.637 250.684 199.205C262.846 202.358 256.314 232.313 256.314 232.313C236.495 260.241 250.458 291.322 250.458 291.322L246.855 316.547C246.855 316.547 246.63 321.727 248.882 332.538L248.882 332.538V332.538Z" fill="#3F3D56"/>
<path d="M315.099 274.43L310.144 336.142C310.144 336.142 316.9 353.259 293.927 352.358C270.954 351.457 284.468 316.322 284.468 316.322L291.675 270.376" fill="#3F3D56"/>
<path d="M295.637 352.843C295.076 352.843 294.501 352.831 293.91 352.808C288.825 352.609 285.08 350.736 282.779 347.241C276.202 337.25 283.517 317.554 284.031 316.206L291.231 270.306C291.269 270.06 291.498 269.895 291.746 269.931C291.991 269.97 292.159 270.2 292.121 270.446L284.914 316.392C284.908 316.423 284.9 316.454 284.889 316.484C284.81 316.688 277.118 337.005 283.532 346.747C285.664 349.984 289.167 351.721 293.946 351.908C301.447 352.201 306.492 350.6 308.945 347.148C312.154 342.63 309.75 336.37 309.725 336.307C309.7 336.243 309.69 336.174 309.695 336.106L314.65 274.394C314.67 274.146 314.883 273.966 315.135 273.981C315.383 274.001 315.568 274.218 315.548 274.466L310.601 336.077C310.929 336.96 312.981 343.016 309.683 347.664C307.243 351.104 302.521 352.843 295.637 352.843V352.843Z" fill="#2F2E41"/>
<path d="M274.107 287.043C274.107 287.043 275.459 344.25 247.08 342.899C218.702 341.547 244.377 323.529 244.377 323.529L246.855 316.547" fill="#3F3D56"/>
<path d="M248.056 343.372C247.726 343.372 247.395 343.364 247.06 343.349C238.957 342.963 234.379 341.147 233.453 337.953C231.784 332.196 242.66 324.204 244.002 323.244L246.432 316.397C246.515 316.162 246.772 316.04 247.007 316.123C247.241 316.206 247.364 316.463 247.281 316.698L244.803 323.68C244.772 323.768 244.714 323.844 244.638 323.898C244.519 323.981 232.756 332.314 234.318 337.702C235.126 340.486 239.427 342.083 247.103 342.449C252.215 342.694 256.696 340.975 260.414 337.345C274.357 323.735 273.667 287.418 273.658 287.053C273.653 286.805 273.849 286.598 274.098 286.592C274.333 286.593 274.553 286.784 274.559 287.032C274.595 288.539 275.267 324.103 261.044 337.989C257.383 341.564 253.017 343.372 248.056 343.372V343.372Z" fill="#2F2E41"/>
<path d="M229.635 166.498C232.869 166.885 237.932 166.867 242.126 164.07C246.617 161.074 241.955 158.281 238.324 156.745C236.301 157.079 234.306 157.881 232.441 159.34C230.513 160.849 229.662 163.367 229.635 166.498Z" fill="#2F2E41"/>
<path d="M281.9 158.398C281.9 158.398 274.04 138.211 285.297 137.928C296.555 137.646 305.447 155.14 305.447 155.14C305.447 155.14 333.703 206.645 294.99 203.868C256.278 201.09 274.777 180.53 274.777 180.53C274.777 180.53 283.607 169.674 281.9 158.398H281.9V158.398V158.398V158.398Z" fill="#2F2E41"/>
<path d="M325.026 309.257C330.012 311.475 335.221 313.738 340.673 313.522C346.125 313.305 351.863 309.794 352.712 304.404C353.151 301.621 352.281 298.636 353.346 296.029C354.78 292.52 359.404 291.167 362.998 292.37C366.592 293.572 369.232 296.672 371.125 299.955C374.667 306.098 376.087 314.16 372.289 320.148C368.997 325.339 362.753 327.685 356.944 329.697C349.208 332.376 340.57 335.036 333.073 331.744C325.533 328.434 321.426 318.869 324.218 311.122" fill="#3F3D56"/>
<path d="M308.393 211.992C308.393 211.992 318.303 216.947 313.348 222.352C308.393 227.757 277.762 243.073 266.501 240.821C255.24 238.568 252.537 231.812 252.537 230.01C252.537 228.208 253.387 206.412 256.99 207.313C260.594 208.214 283.168 228.658 308.393 211.992Z" fill="#6C63FF"/>
</svg>
